<svg version="1.1" xmlns="http://www.w3.org/2000/svg" viewBox="0 0 1960 1000" width="1960" height="1000">
  <!-- svg-source:excalidraw -->
  
  <defs>
    <style>
      @font-face {
        font-family: "Virgil";
        src: url("https://excalidraw.com/Virgil.woff2");
      }
      @font-face {
        font-family: "Cascadia";
        src: url("https://excalidraw.com/Cascadia.woff2");
      }
    </style>
  </defs>
  <rect x="0" y="0" width="1960" height="1000" fill="transparent"></rect><g stroke-linecap="round" transform="translate(10 10) rotate(0 970 490)"><path d="M0 0 L1940 0 L1940 980 L0 980" stroke="none" stroke-width="0" fill="#f5f5f5"></path><path d="M0 0 C622.22 0, 1244.44 0, 1940 0 M0 0 C534.69 0, 1069.38 0, 1940 0 M1940 0 C1940 217.64, 1940 435.28, 1940 980 M1940 0 C1940 269.28, 1940 538.56, 1940 980 M1940 980 C1196.37 980, 452.75 980, 0 980 M1940 980 C1378.89 980, 817.78 980, 0 980 M0 980 C0 588.25, 0 196.5, 0 0 M0 980 C0 679.98, 0 379.97, 0 0" stroke="#000000" stroke-width="2" fill="none"></path></g><g stroke-linecap="round" transform="translate(330 150) rotate(0 770 410)"><path d="M0 0 L1540 0 L1540 820 L0 820" stroke="none" stroke-width="0" fill="#d3e3fa"></path><path d="M0 0 C393.2 0, 786.4 0, 1540 0 M0 0 C426.44 0, 852.88 0, 1540 0 M1540 0 C1540 267.39, 1540 534.79, 1540 820 M1540 0 C1540 314.15, 1540 628.29, 1540 820 M1540 820 C1078.4 820, 616.79 820, 0 820 M1540 820 C1033.14 820, 526.27 820, 0 820 M0 820 C0 534.72, 0 249.44, 0 0 M0 820 C0 502.92, 0 185.85, 0 0" stroke="#000000" stroke-width="2" fill="none"></path></g><g transform="translate(1630 210) rotate(0 85.5 14.5)"><text x="0" y="22" font-family="Helvetica, Segoe UI Emoji" font-size="28px" fill="#000000" text-anchor="start" style="white-space: pre;" direction="ltr">Google Cloud</text></g><g transform="translate(490 50) rotate(0 640 36.5)"><text x="0" y="56" font-family="Helvetica, Segoe UI Emoji" font-size="72.63042936792289px" fill="#000000" text-anchor="start" style="white-space: pre;" direction="ltr">Cloud architecture of my URL shortener</text></g><g stroke-linecap="round" transform="translate(410 490) rotate(0 177.77777777777777 80)"><path d="M40 0 L315.56 0 L324.93 0.62 L333.06 2.5 L339.93 5.62 L345.56 10 L349.93 15.62 L353.06 22.5 L354.93 30.62 L355.56 40 L355.56 120 L354.93 129.37 L353.06 137.5 L349.93 144.37 L345.56 150 L339.93 154.37 L333.06 157.5 L324.93 159.37 L315.56 160 L40 160 L30.62 159.37 L22.5 157.5 L15.62 154.37 L10 150 L5.62 144.37 L2.5 137.5 L0.62 129.37 L0 120 L0 40 L0.62 30.62 L2.5 22.5 L5.62 15.62 L10 10 L15.62 5.62 L22.5 2.5 L30.62 0.62 L40 0" stroke="none" stroke-width="0" fill="#FFF"></path><path d="M40 0 M40 0 C111.89 0, 183.78 0, 315.56 0 M40 0 C122.12 0, 204.24 0, 315.56 0 M315.56 0 C342.22 0, 355.56 13.33, 355.56 40 M315.56 0 C342.22 0, 355.56 13.33, 355.56 40 M355.56 40 C355.56 65.25, 355.56 90.5, 355.56 120 M355.56 40 C355.56 58.2, 355.56 76.41, 355.56 120 M355.56 120 C355.56 146.67, 342.22 160, 315.56 160 M355.56 120 C355.56 146.67, 342.22 160, 315.56 160 M315.56 160 C213.3 160, 111.03 160, 40 160 M315.56 160 C243.61 160, 171.66 160, 40 160 M40 160 C13.33 160, 0 146.67, 0 120 M40 160 C13.33 160, 0 146.67, 0 120 M0 120 C0 103.64, 0 87.28, 0 40 M0 120 C0 89.51, 0 59.02, 0 40 M0 40 C0 13.33, 13.33 0, 40 0 M0 40 C0 13.33, 13.33 0, 40 0" stroke="#4285f4" stroke-width="2" fill="none"></path></g><g transform="translate(570 543.3333333333335) rotate(0 63.111111111111086 27.555555555555543)"><text x="0" y="20.555555555555546" font-family="Helvetica, Segoe UI Emoji" font-size="26.66666666666666px" fill="#000000" text-anchor="start" style="white-space: pre;" direction="ltr">Cloud Run</text><text x="0" y="48.11111111111109" font-family="Helvetica, Segoe UI Emoji" font-size="26.66666666666666px" fill="#000000" text-anchor="start" style="white-space: pre;" direction="ltr"> Container</text></g><g stroke-linecap="round"><g transform="translate(473.0567889743379 542.227160665724) rotate(0 18.46913867526584 13.886419667138)" fill-rule="evenodd"><path d="M0 0 L9.22 27.77 L36.94 27.77 L0 0 L0 0" stroke="none" stroke-width="0" fill="#aecbfa" fill-rule="evenodd"></path><path d="M0 0 C2.09 6.28, 4.17 12.56, 9.22 27.77 M0 0 C2.54 7.65, 5.08 15.3, 9.22 27.77 M9.22 27.77 C18.06 27.77, 26.9 27.77, 36.94 27.77 M9.22 27.77 C15.39 27.77, 21.55 27.77, 36.94 27.77 M36.94 27.77 C28.33 21.3, 19.72 14.83, 0 0 M36.94 27.77 C24.32 18.29, 11.7 8.8, 0 0 M0 0 C0 0, 0 0, 0 0 M0 0 C0 0, 0 0, 0 0 M0 0 C0 0, 0 0, 0 0 M0 0 C0 0, 0 0, 0 0" stroke="transparent" stroke-width="1" fill="none"></path></g></g><g stroke-linecap="round"><g transform="translate(514.612350993686 571.1061726676093) rotate(0 -23.086423344082306 13.886422051323791)" fill-rule="evenodd"><path d="M-4.62 0 L-32.33 0 L-41.56 27.77 L-4.62 0 L-4.62 0" stroke="none" stroke-width="0" fill="#4285f4" fill-rule="evenodd"></path><path d="M-4.62 0 C-14.9 0, -25.18 0, -32.33 0 M-4.62 0 C-11.18 0, -17.75 0, -32.33 0 M-32.33 0 C-34.59 6.8, -36.85 13.59, -41.56 27.77 M-32.33 0 C-34.59 6.79, -36.84 13.58, -41.56 27.77 M-41.56 27.77 C-27.04 16.86, -12.53 5.95, -4.62 0 M-41.56 27.77 C-28.32 17.82, -15.08 7.86, -4.62 0 M-4.62 0 C-4.62 0, -4.62 0, -4.62 0 M-4.62 0 C-4.62 0, -4.62 0, -4.62 0 M-4.62 0 C-4.62 0, -4.62 0, -4.62 0 M-4.62 0 C-4.62 0, -4.62 0, -4.62 0" stroke="transparent" stroke-width="1" fill="none"></path></g></g><g stroke-linecap="round"><g transform="translate(456.85925907558885 602.3506222830878) rotate(0 8.098764949374726 -17.358027564154725)" fill-rule="evenodd"><path d="M0 -3.47 L9.26 -8.09 L16.2 -31.24 L6.93 -31.24 L0 -3.47 L0 -3.47" stroke="none" stroke-width="0" fill="#4285f4" fill-rule="evenodd"></path><path d="M0 -3.47 C3.02 -4.98, 6.03 -6.48, 9.26 -8.09 M0 -3.47 C2.94 -4.94, 5.88 -6.41, 9.26 -8.09 M9.26 -8.09 C11.15 -14.37, 13.03 -20.65, 16.2 -31.24 M9.26 -8.09 C11.06 -14.08, 12.85 -20.06, 16.2 -31.24 M16.2 -31.24 C14.2 -31.24, 12.2 -31.24, 6.93 -31.24 M16.2 -31.24 C13.19 -31.24, 10.19 -31.24, 6.93 -31.24 M6.93 -31.24 C4.23 -20.43, 1.53 -9.61, 0 -3.47 M6.93 -31.24 C4.87 -22.97, 2.8 -14.69, 0 -3.47 M0 -3.47 C0 -3.47, 0 -3.47, 0 -3.47 M0 -3.47 C0 -3.47, 0 -3.47, 0 -3.47 M0 -3.47 C0 -3.47, 0 -3.47, 0 -3.47 M0 -3.47 C0 -3.47, 0 -3.47, 0 -3.47" stroke="transparent" stroke-width="1" fill="none"></path></g></g><g stroke-linecap="round"><g transform="translate(456.85925907558885 543.3333333333335) rotate(0 8.098764949374726 13.886419667138)" fill-rule="evenodd"><path d="M0 0 L6.93 27.77 L16.2 27.77 L9.26 4.62 L0 0 L0 0" stroke="none" stroke-width="0" fill="#aecbfa" fill-rule="evenodd"></path><path d="M0 0 C1.62 6.47, 3.23 12.94, 6.93 27.77 M0 0 C1.61 6.46, 3.22 12.91, 6.93 27.77 M6.93 27.77 C10.56 27.77, 14.19 27.77, 16.2 27.77 M6.93 27.77 C9.81 27.77, 12.68 27.77, 16.2 27.77 M16.2 27.77 C14.7 22.76, 13.2 17.75, 9.26 4.62 M16.2 27.77 C14.58 22.38, 12.97 16.99, 9.26 4.62 M9.26 4.62 C7.09 3.54, 4.91 2.45, 0 0 M9.26 4.62 C6.75 3.37, 4.23 2.11, 0 0 M0 0 C0 0, 0 0, 0 0 M0 0 C0 0, 0 0, 0 0 M0 0 C0 0, 0 0, 0 0 M0 0 C0 0, 0 0, 0 0" stroke="transparent" stroke-width="1" fill="none"></path></g></g><g stroke-opacity="0.9" fill-opacity="0.9" transform="translate(510 510) rotate(0 99.5 14.5)"><text x="0" y="22" font-family="Helvetica, Segoe UI Emoji" font-size="28px" fill="#495057" text-anchor="start" style="white-space: pre;" direction="ltr">Web application</text></g><g stroke-linecap="round" transform="translate(1430 490) rotate(0 180 81)"><path d="M40.5 0 L319.5 0 L328.99 0.63 L337.22 2.53 L344.18 5.7 L349.88 10.12 L354.3 15.82 L357.47 22.78 L359.37 31.01 L360 40.5 L360 121.5 L359.37 130.99 L357.47 139.22 L354.3 146.18 L349.88 151.87 L344.18 156.3 L337.22 159.47 L328.99 161.37 L319.5 162 L40.5 162 L31.01 161.37 L22.78 159.47 L15.82 156.3 L10.12 151.87 L5.7 146.18 L2.53 139.22 L0.63 130.99 L0 121.5 L0 40.5 L0.63 31.01 L2.53 22.78 L5.7 15.82 L10.12 10.12 L15.82 5.7 L22.78 2.53 L31.01 0.63 L40.5 0" stroke="none" stroke-width="0" fill="#FFF"></path><path d="M40.5 0 M40.5 0 C128.55 0, 216.6 0, 319.5 0 M40.5 0 C119.13 0, 197.75 0, 319.5 0 M319.5 0 C346.5 0, 360 13.5, 360 40.5 M319.5 0 C346.5 0, 360 13.5, 360 40.5 M360 40.5 C360 59.26, 360 78.02, 360 121.5 M360 40.5 C360 70.45, 360 100.39, 360 121.5 M360 121.5 C360 148.5, 346.5 162, 319.5 162 M360 121.5 C360 148.5, 346.5 162, 319.5 162 M319.5 162 C256.77 162, 194.03 162, 40.5 162 M319.5 162 C221.25 162, 123 162, 40.5 162 M40.5 162 C13.5 162, 0 148.5, 0 121.5 M40.5 162 C13.5 162, 0 148.5, 0 121.5 M0 121.5 C0 92.87, 0 64.24, 0 40.5 M0 121.5 C0 98.52, 0 75.55, 0 40.5 M0 40.5 C0 13.5, 13.5 0, 40.5 0 M0 40.5 C0 13.5, 13.5 0, 40.5 0" stroke="#4285f4" stroke-width="2" fill="none"></path></g><g transform="translate(1570 550) rotate(0 95.625 15.75)"><text x="0" y="24.50000000000001" font-family="Helvetica, Segoe UI Emoji" font-size="27px" fill="#000000" text-anchor="start" style="white-space: pre;" direction="ltr">Cloud Functions</text></g><g stroke-linecap="round"><g transform="translate(1471.2046326696873 565.313018321991) rotate(0 4.774272367358208 5.571208953857422)" fill-rule="evenodd"><path d="M0 16.9 L9.55 24.66 L9.55 -13.52 L0 -5.79 L0 16.9" stroke="none" stroke-width="0" fill="#669df6" fill-rule="evenodd"></path><path d="M0 16.9 C3.31 19.59, 6.63 22.29, 9.55 24.66 M0 16.9 C3.26 19.55, 6.52 22.2, 9.55 24.66 M9.55 24.66 C9.55 12.63, 9.55 0.59, 9.55 -13.52 M9.55 24.66 C9.55 11.67, 9.55 -1.33, 9.55 -13.52 M9.55 -13.52 C7.5 -11.86, 5.45 -10.2, 0 -5.79 M9.55 -13.52 C6.26 -10.86, 2.96 -8.19, 0 -5.79 M0 -5.79 C0 2.56, 0 10.92, 0 16.9 M0 -5.79 C0 0.39, 0 6.56, 0 16.9 M0 16.9 C0 16.9, 0 16.9, 0 16.9 M0 16.9 C0 16.9, 0 16.9, 0 16.9" stroke="#00000000" stroke-width="1" fill="none"></path></g></g><g stroke-linecap="round"><g transform="translate(1471.2046326696873 557.447781085968) rotate(0 4.774272367358208 0.7068914175033569)" fill-rule="evenodd"><path d="M0 7.07 L9.55 0.71 L9.55 -5.66 L0 7.07" stroke="none" stroke-width="0" fill="#4285f4" fill-rule="evenodd"></path><path d="M0 7.07 C3.07 5.03, 6.13 2.98, 9.55 0.71 M0 7.07 C3.6 4.67, 7.21 2.27, 9.55 0.71 M9.55 0.71 C9.55 -0.62, 9.55 -1.95, 9.55 -5.66 M9.55 0.71 C9.55 -1.04, 9.55 -2.78, 9.55 -5.66 M9.55 -5.66 C5.93 -0.83, 2.3 4, 0 7.07 M9.55 -5.66 C7.37 -2.75, 5.19 0.15, 0 7.07 M0 7.07 C0 7.07, 0 7.07, 0 7.07 M0 7.07 C0 7.07, 0 7.07, 0 7.07" stroke="#00000000" stroke-width="1" fill="none"></path></g></g><g stroke-linecap="round"><g transform="translate(1475.4484303295612 582.9007668495178) rotate(0 0.5304747074842453 0.7075037956237793)" fill-rule="evenodd"><path d="M5.3 7.08 L5.3 0.71 L-4.24 -5.66 L5.3 7.08" stroke="none" stroke-width="0" fill="#4285f4" fill-rule="evenodd"></path><path d="M5.3 7.08 C5.3 5.52, 5.3 3.96, 5.3 0.71 M5.3 7.08 C5.3 5.06, 5.3 3.04, 5.3 0.71 M5.3 0.71 C1.7 -1.69, -1.91 -4.1, -4.24 -5.66 M5.3 0.71 C1.82 -1.61, -1.67 -3.94, -4.24 -5.66 M-4.24 -5.66 C-1.26 -1.68, 1.72 2.3, 5.3 7.08 M-4.24 -5.66 C-1.38 -1.85, 1.48 1.97, 5.3 7.08 M5.3 7.08 C5.3 7.08, 5.3 7.08, 5.3 7.08 M5.3 7.08 C5.3 7.08, 5.3 7.08, 5.3 7.08" stroke="#00000000" stroke-width="1" fill="none"></path></g></g><g stroke-linecap="round"><g transform="translate(1479.687328606844 585.7283310890198) rotate(0 1.0603369921445847 4.241961240768433)" fill-rule="evenodd"><path d="M10.6 10.61 L-8.48 -8.49 L-8.48 4.25 L4.24 16.97 L10.6 10.61" stroke="none" stroke-width="0" fill="#aecbfa" fill-rule="evenodd"></path><path d="M10.6 10.61 C4.96 4.96, -0.69 -0.69, -8.48 -8.49 M10.6 10.61 C3.64 3.64, -3.33 -3.33, -8.48 -8.49 M-8.48 -8.49 C-8.48 -4.36, -8.48 -0.23, -8.48 4.25 M-8.48 -8.49 C-8.48 -5.75, -8.48 -3.02, -8.48 4.25 M-8.48 4.25 C-4.04 8.69, 0.4 13.13, 4.24 16.97 M-8.48 4.25 C-5.1 7.63, -1.72 11.02, 4.24 16.97 M4.24 16.97 C5.56 15.65, 6.89 14.33, 10.6 10.61 M4.24 16.97 C6.08 15.14, 7.91 13.3, 10.6 10.61 M10.6 10.61 C10.6 10.61, 10.6 10.61, 10.6 10.61 M10.6 10.61 C10.6 10.61, 10.6 10.61, 10.6 10.61" stroke="#00000000" stroke-width="1" fill="none"></path></g></g><g stroke-linecap="round"><g transform="translate(1476.8450620472431 539.1016847193241) rotate(0 3.8915764540433884 12.707505270838737)" fill-rule="evenodd"><path d="M7.05 0 L-5.64 12.69 L-5.61 25.42 L13.42 6.36 L7.05 0" stroke="none" stroke-width="0" fill="#aecbfa" fill-rule="evenodd"></path><path d="M7.05 0 C3.87 3.18, 0.69 6.36, -5.64 12.69 M7.05 0 C3.11 3.94, -0.83 7.88, -5.64 12.69 M-5.64 12.69 C-5.63 16.74, -5.62 20.79, -5.61 25.42 M-5.64 12.69 C-5.63 17.61, -5.61 22.52, -5.61 25.42 M-5.61 25.42 C-0.23 20.03, 5.14 14.65, 13.42 6.36 M-5.61 25.42 C-0.88 20.68, 3.84 15.95, 13.42 6.36 M13.42 6.36 C11.21 4.15, 8.99 1.94, 7.05 0 M13.42 6.36 C11.45 4.39, 9.47 2.42, 7.05 0 M7.05 0 C7.05 0, 7.05 0, 7.05 0 M7.05 0 C7.05 0, 7.05 0, 7.05 0" stroke="#00000000" stroke-width="1" fill="none"></path></g></g><g stroke-linecap="round"><g transform="translate(1529.5372514724731 555.2756524085999) rotate(0 0.5298621654510498 15.641654014587402)" fill-rule="evenodd"><path d="M5.3 4.31 L-4.24 -3.45 L-4.24 34.73 L5.3 27.03 L5.3 4.31" stroke="none" stroke-width="0" fill="#669df6" fill-rule="evenodd"></path><path d="M5.3 4.31 C2.51 2.04, -0.28 -0.23, -4.24 -3.45 M5.3 4.31 C1.86 1.52, -1.57 -1.28, -4.24 -3.45 M-4.24 -3.45 C-4.24 5.17, -4.24 13.79, -4.24 34.73 M-4.24 -3.45 C-4.24 11.05, -4.24 25.55, -4.24 34.73 M-4.24 34.73 C-1.89 32.83, 0.47 30.93, 5.3 27.03 M-4.24 34.73 C-2.33 33.19, -0.41 31.64, 5.3 27.03 M5.3 27.03 C5.3 17.97, 5.3 8.92, 5.3 4.31 M5.3 27.03 C5.3 21.4, 5.3 15.78, 5.3 4.31 M5.3 4.31 C5.3 4.31, 5.3 4.31, 5.3 4.31 M5.3 4.31 C5.3 4.31, 5.3 4.31, 5.3 4.31" stroke="#00000000" stroke-width="1" fill="none"></path></g></g><g stroke-linecap="round"><g transform="translate(1529.5372514724731 577.2738156318665) rotate(0 0.5298621654510498 6.367534160614014)" fill-rule="evenodd"><path d="M5.3 0 L-4.24 6.36 L-4.24 12.74 L5.3 0" stroke="none" stroke-width="0" fill="#4285f4" fill-rule="evenodd"></path><path d="M5.3 0 C2.45 1.9, -0.41 3.81, -4.24 6.36 M5.3 0 C2.29 2.01, -0.72 4.02, -4.24 6.36 M-4.24 6.36 C-4.24 8.16, -4.24 9.95, -4.24 12.74 M-4.24 6.36 C-4.24 8.37, -4.24 10.38, -4.24 12.74 M-4.24 12.74 C-1.36 8.9, 1.51 5.06, 5.3 0 M-4.24 12.74 C-1.89 9.6, 0.46 6.47, 5.3 0 M5.3 0 C5.3 0, 5.3 0, 5.3 0 M5.3 0 C5.3 0, 5.3 0, 5.3 0" stroke="#00000000" stroke-width="1" fill="none"></path></g></g><g stroke-linecap="round"><g transform="translate(1525.2983541488647 551.82572889328) rotate(0 4.768759489059448 6.3620216846466064)" fill-rule="evenodd"><path d="M0 0 L0 6.36 L9.54 12.72 L0 0" stroke="none" stroke-width="0" fill="#4285f4" fill-rule="evenodd"></path><path d="M0 0 C0 2.06, 0 4.11, 0 6.36 M0 0 C0 1.99, 0 3.99, 0 6.36 M0 6.36 C3.05 8.4, 6.11 10.44, 9.54 12.72 M0 6.36 C2.13 7.78, 4.26 9.2, 9.54 12.72 M9.54 12.72 C7.62 10.17, 5.7 7.61, 0 0 M9.54 12.72 C7.51 10.02, 5.49 7.32, 0 0 M0 0 C0 0, 0 0, 0 0 M0 0 C0 0, 0 0, 0 0" stroke="#00000000" stroke-width="1" fill="none"></path></g></g><g stroke-linecap="round"><g transform="translate(1515.749810218811 541.9292497932911) rotate(0 9.543031454086304 9.896478697657585)" fill-rule="evenodd"><path d="M0 3.53 L19.09 22.62 L19.09 9.9 L6.36 -2.83 L0 3.53" stroke="none" stroke-width="0" fill="#aecbfa" fill-rule="evenodd"></path><path d="M0 3.53 C7.02 10.55, 14.04 17.57, 19.09 22.62 M0 3.53 C5.04 8.57, 10.07 13.61, 19.09 22.62 M19.09 22.62 C19.09 18.53, 19.09 14.45, 19.09 9.9 M19.09 22.62 C19.09 19.02, 19.09 15.41, 19.09 9.9 M19.09 9.9 C16.27 7.08, 13.45 4.26, 6.36 -2.83 M19.09 9.9 C14.6 5.41, 10.11 0.92, 6.36 -2.83 M6.36 -2.83 C4.34 -0.81, 2.32 1.21, 0 3.53 M6.36 -2.83 C4.96 -1.42, 3.56 -0.02, 0 3.53 M0 3.53 C0 3.53, 0 3.53, 0 3.53 M0 3.53 C0 3.53, 0 3.53, 0 3.53" stroke="#00000000" stroke-width="1" fill="none"></path></g></g><g stroke-linecap="round"><g transform="translate(1518.610451221466 588.5742745399475) rotate(0 6.698927879333496 1.4125573635101318)" fill-rule="evenodd"><path d="M3.53 14.13 L16.23 1.43 L16.19 -11.3 L-2.83 7.76 L3.53 14.13" stroke="none" stroke-width="0" fill="#aecbfa" fill-rule="evenodd"></path><path d="M3.53 14.13 C8.24 9.42, 12.95 4.71, 16.23 1.43 M3.53 14.13 C7.33 10.33, 11.13 6.53, 16.23 1.43 M16.23 1.43 C16.21 -3.26, 16.2 -7.96, 16.19 -11.3 M16.23 1.43 C16.21 -3.54, 16.2 -8.52, 16.19 -11.3 M16.19 -11.3 C8.96 -4.05, 1.72 3.2, -2.83 7.76 M16.19 -11.3 C11.66 -6.76, 7.13 -2.22, -2.83 7.76 M-2.83 7.76 C-0.35 10.24, 2.13 12.72, 3.53 14.13 M-2.83 7.76 C-0.29 10.3, 2.24 12.83, 3.53 14.13 M3.53 14.13 C3.53 14.13, 3.53 14.13, 3.53 14.13 M3.53 14.13 C3.53 14.13, 3.53 14.13, 3.53 14.13" stroke="#00000000" stroke-width="1" fill="none"></path></g></g><g stroke-linecap="round" transform="translate(1487.1041741371155 567.6921904087067) rotate(0 3.1865238547325134 3.1865238547325134)"><path d="M6.37 3.19 C6.37 3.37, 6.36 3.56, 6.32 3.74 C6.29 3.92, 6.24 4.1, 6.18 4.28 C6.12 4.45, 6.04 4.62, 5.95 4.78 C5.85 4.94, 5.75 5.09, 5.63 5.23 C5.51 5.38, 5.38 5.51, 5.23 5.63 C5.09 5.75, 4.94 5.85, 4.78 5.95 C4.62 6.04, 4.45 6.12, 4.28 6.18 C4.1 6.24, 3.92 6.29, 3.74 6.32 C3.56 6.36, 3.37 6.37, 3.19 6.37 C3 6.37, 2.81 6.36, 2.63 6.32 C2.45 6.29, 2.27 6.24, 2.1 6.18 C1.92 6.12, 1.75 6.04, 1.59 5.95 C1.43 5.85, 1.28 5.75, 1.14 5.63 C1 5.51, 0.86 5.38, 0.75 5.23 C0.63 5.09, 0.52 4.94, 0.43 4.78 C0.33 4.62, 0.26 4.45, 0.19 4.28 C0.13 4.1, 0.08 3.92, 0.05 3.74 C0.02 3.56, 0 3.37, 0 3.19 C0 3, 0.02 2.81, 0.05 2.63 C0.08 2.45, 0.13 2.27, 0.19 2.1 C0.26 1.92, 0.33 1.75, 0.43 1.59 C0.52 1.43, 0.63 1.28, 0.75 1.14 C0.86 1, 1 0.86, 1.14 0.75 C1.28 0.63, 1.43 0.52, 1.59 0.43 C1.75 0.33, 1.92 0.26, 2.1 0.19 C2.27 0.13, 2.45 0.08, 2.63 0.05 C2.81 0.02, 3 0, 3.19 0 C3.37 0, 3.56 0.02, 3.74 0.05 C3.92 0.08, 4.1 0.13, 4.28 0.19 C4.45 0.26, 4.62 0.33, 4.78 0.43 C4.94 0.52, 5.09 0.63, 5.23 0.75 C5.38 0.86, 5.51 1, 5.63 1.14 C5.75 1.28, 5.85 1.43, 5.95 1.59 C6.04 1.75, 6.12 1.92, 6.18 2.1 C6.24 2.27, 6.29 2.45, 6.32 2.63 C6.36 2.81, 6.36 3.09, 6.37 3.19 C6.38 3.28, 6.38 3.09, 6.37 3.19" stroke="none" stroke-width="0" fill="#aecbfa"></path><path d="M6.37 3.19 C6.37 3.37, 6.36 3.56, 6.32 3.74 C6.29 3.92, 6.24 4.1, 6.18 4.28 C6.12 4.45, 6.04 4.62, 5.95 4.78 C5.85 4.94, 5.75 5.09, 5.63 5.23 C5.51 5.38, 5.38 5.51, 5.23 5.63 C5.09 5.75, 4.94 5.85, 4.78 5.95 C4.62 6.04, 4.45 6.12, 4.28 6.18 C4.1 6.24, 3.92 6.29, 3.74 6.32 C3.56 6.36, 3.37 6.37, 3.19 6.37 C3 6.37, 2.81 6.36, 2.63 6.32 C2.45 6.29, 2.27 6.24, 2.1 6.18 C1.92 6.12, 1.75 6.04, 1.59 5.95 C1.43 5.85, 1.28 5.75, 1.14 5.63 C1 5.51, 0.86 5.38, 0.75 5.23 C0.63 5.09, 0.52 4.94, 0.43 4.78 C0.33 4.62, 0.26 4.45, 0.19 4.28 C0.13 4.1, 0.08 3.92, 0.05 3.74 C0.02 3.56, 0 3.37, 0 3.19 C0 3, 0.02 2.81, 0.05 2.63 C0.08 2.45, 0.13 2.27, 0.19 2.1 C0.26 1.92, 0.33 1.75, 0.43 1.59 C0.52 1.43, 0.63 1.28, 0.75 1.14 C0.86 1, 1 0.86, 1.14 0.75 C1.28 0.63, 1.43 0.52, 1.59 0.43 C1.75 0.33, 1.92 0.26, 2.1 0.19 C2.27 0.13, 2.45 0.08, 2.63 0.05 C2.81 0.02, 3 0, 3.19 0 C3.37 0, 3.56 0.02, 3.74 0.05 C3.92 0.08, 4.1 0.13, 4.28 0.19 C4.45 0.26, 4.62 0.33, 4.78 0.43 C4.94 0.52, 5.09 0.63, 5.23 0.75 C5.38 0.86, 5.51 1, 5.63 1.14 C5.75 1.28, 5.85 1.43, 5.95 1.59 C6.04 1.75, 6.12 1.92, 6.18 2.1 C6.24 2.27, 6.29 2.45, 6.32 2.63 C6.36 2.81, 6.36 3.09, 6.37 3.19 C6.38 3.28, 6.38 3.09, 6.37 3.19" stroke="transparent" stroke-width="1" fill="none"></path></g><g stroke-linecap="round" transform="translate(1499.8392446041107 567.6921904087067) rotate(0 3.1865238547325134 3.1865238547325134)"><path d="M6.37 3.19 C6.37 3.37, 6.36 3.56, 6.32 3.74 C6.29 3.92, 6.24 4.1, 6.18 4.28 C6.12 4.45, 6.04 4.62, 5.95 4.78 C5.85 4.94, 5.75 5.09, 5.63 5.23 C5.51 5.38, 5.38 5.51, 5.23 5.63 C5.09 5.75, 4.94 5.85, 4.78 5.95 C4.62 6.04, 4.45 6.12, 4.28 6.18 C4.1 6.24, 3.92 6.29, 3.74 6.32 C3.56 6.36, 3.37 6.37, 3.19 6.37 C3 6.37, 2.81 6.36, 2.63 6.32 C2.45 6.29, 2.27 6.24, 2.1 6.18 C1.92 6.12, 1.75 6.04, 1.59 5.95 C1.43 5.85, 1.28 5.75, 1.14 5.63 C1 5.51, 0.86 5.38, 0.75 5.23 C0.63 5.09, 0.52 4.94, 0.43 4.78 C0.33 4.62, 0.26 4.45, 0.19 4.28 C0.13 4.1, 0.08 3.92, 0.05 3.74 C0.02 3.56, 0 3.37, 0 3.19 C0 3, 0.02 2.81, 0.05 2.63 C0.08 2.45, 0.13 2.27, 0.19 2.1 C0.26 1.92, 0.33 1.75, 0.43 1.59 C0.52 1.43, 0.63 1.28, 0.75 1.14 C0.86 1, 1 0.86, 1.14 0.75 C1.28 0.63, 1.43 0.52, 1.59 0.43 C1.75 0.33, 1.92 0.26, 2.1 0.19 C2.27 0.13, 2.45 0.08, 2.63 0.05 C2.81 0.02, 3 0, 3.19 0 C3.37 0, 3.56 0.02, 3.74 0.05 C3.92 0.08, 4.1 0.13, 4.28 0.19 C4.45 0.26, 4.62 0.33, 4.78 0.43 C4.94 0.52, 5.09 0.63, 5.23 0.75 C5.38 0.86, 5.51 1, 5.63 1.14 C5.75 1.28, 5.85 1.43, 5.95 1.59 C6.04 1.75, 6.12 1.92, 6.18 2.1 C6.24 2.27, 6.29 2.45, 6.32 2.63 C6.36 2.81, 6.36 3.09, 6.37 3.19 C6.38 3.28, 6.38 3.09, 6.37 3.19" stroke="none" stroke-width="0" fill="#aecbfa"></path><path d="M6.37 3.19 C6.37 3.37, 6.36 3.56, 6.32 3.74 C6.29 3.92, 6.24 4.1, 6.18 4.28 C6.12 4.45, 6.04 4.62, 5.95 4.78 C5.85 4.94, 5.75 5.09, 5.63 5.23 C5.51 5.38, 5.38 5.51, 5.23 5.63 C5.09 5.75, 4.94 5.85, 4.78 5.95 C4.62 6.04, 4.45 6.12, 4.28 6.18 C4.1 6.24, 3.92 6.29, 3.74 6.32 C3.56 6.36, 3.37 6.37, 3.19 6.37 C3 6.37, 2.81 6.36, 2.63 6.32 C2.45 6.29, 2.27 6.24, 2.1 6.18 C1.92 6.12, 1.75 6.04, 1.59 5.95 C1.43 5.85, 1.28 5.75, 1.14 5.63 C1 5.51, 0.86 5.38, 0.75 5.23 C0.63 5.09, 0.52 4.94, 0.43 4.78 C0.33 4.62, 0.26 4.45, 0.19 4.28 C0.13 4.1, 0.08 3.92, 0.05 3.74 C0.02 3.56, 0 3.37, 0 3.19 C0 3, 0.02 2.81, 0.05 2.63 C0.08 2.45, 0.13 2.27, 0.19 2.1 C0.26 1.92, 0.33 1.75, 0.43 1.59 C0.52 1.43, 0.63 1.28, 0.75 1.14 C0.86 1, 1 0.86, 1.14 0.75 C1.28 0.63, 1.43 0.52, 1.59 0.43 C1.75 0.33, 1.92 0.26, 2.1 0.19 C2.27 0.13, 2.45 0.08, 2.63 0.05 C2.81 0.02, 3 0, 3.19 0 C3.37 0, 3.56 0.02, 3.74 0.05 C3.92 0.08, 4.1 0.13, 4.28 0.19 C4.45 0.26, 4.62 0.33, 4.78 0.43 C4.94 0.52, 5.09 0.63, 5.23 0.75 C5.38 0.86, 5.51 1, 5.63 1.14 C5.75 1.28, 5.85 1.43, 5.95 1.59 C6.04 1.75, 6.12 1.92, 6.18 2.1 C6.24 2.27, 6.29 2.45, 6.32 2.63 C6.36 2.81, 6.36 3.09, 6.37 3.19 C6.38 3.28, 6.38 3.09, 6.37 3.19" stroke="transparent" stroke-width="1" fill="none"></path></g><g stroke-linecap="round" transform="translate(1512.5302066802979 567.6921904087067) rotate(0 3.1865238547325134 3.1865238547325134)"><path d="M6.37 3.19 C6.37 3.37, 6.36 3.56, 6.32 3.74 C6.29 3.92, 6.24 4.1, 6.18 4.28 C6.12 4.45, 6.04 4.62, 5.95 4.78 C5.85 4.94, 5.75 5.09, 5.63 5.23 C5.51 5.38, 5.38 5.51, 5.23 5.63 C5.09 5.75, 4.94 5.85, 4.78 5.95 C4.62 6.04, 4.45 6.12, 4.28 6.18 C4.1 6.24, 3.92 6.29, 3.74 6.32 C3.56 6.36, 3.37 6.37, 3.19 6.37 C3 6.37, 2.81 6.36, 2.63 6.32 C2.45 6.29, 2.27 6.24, 2.1 6.18 C1.92 6.12, 1.75 6.04, 1.59 5.95 C1.43 5.85, 1.28 5.75, 1.14 5.63 C1 5.51, 0.86 5.38, 0.75 5.23 C0.63 5.09, 0.52 4.94, 0.43 4.78 C0.33 4.62, 0.26 4.45, 0.19 4.28 C0.13 4.1, 0.08 3.92, 0.05 3.74 C0.02 3.56, 0 3.37, 0 3.19 C0 3, 0.02 2.81, 0.05 2.63 C0.08 2.45, 0.13 2.27, 0.19 2.1 C0.26 1.92, 0.33 1.75, 0.43 1.59 C0.52 1.43, 0.63 1.28, 0.75 1.14 C0.86 1, 1 0.86, 1.14 0.75 C1.28 0.63, 1.43 0.52, 1.59 0.43 C1.75 0.33, 1.92 0.26, 2.1 0.19 C2.27 0.13, 2.45 0.08, 2.63 0.05 C2.81 0.02, 3 0, 3.19 0 C3.37 0, 3.56 0.02, 3.74 0.05 C3.92 0.08, 4.1 0.13, 4.28 0.19 C4.45 0.26, 4.62 0.33, 4.78 0.43 C4.94 0.52, 5.09 0.63, 5.23 0.75 C5.38 0.86, 5.51 1, 5.63 1.14 C5.75 1.28, 5.85 1.43, 5.95 1.59 C6.04 1.75, 6.12 1.92, 6.18 2.1 C6.24 2.27, 6.29 2.45, 6.32 2.63 C6.36 2.81, 6.36 3.09, 6.37 3.19 C6.38 3.28, 6.38 3.09, 6.37 3.19" stroke="none" stroke-width="0" fill="#aecbfa"></path><path d="M6.37 3.19 C6.37 3.37, 6.36 3.56, 6.32 3.74 C6.29 3.92, 6.24 4.1, 6.18 4.28 C6.12 4.45, 6.04 4.62, 5.95 4.78 C5.85 4.94, 5.75 5.09, 5.63 5.23 C5.51 5.38, 5.38 5.51, 5.23 5.63 C5.09 5.75, 4.94 5.85, 4.78 5.95 C4.62 6.04, 4.45 6.12, 4.28 6.18 C4.1 6.24, 3.92 6.29, 3.74 6.32 C3.56 6.36, 3.37 6.37, 3.19 6.37 C3 6.37, 2.81 6.36, 2.63 6.32 C2.45 6.29, 2.27 6.24, 2.1 6.18 C1.92 6.12, 1.75 6.04, 1.59 5.95 C1.43 5.85, 1.28 5.75, 1.14 5.63 C1 5.51, 0.86 5.38, 0.75 5.23 C0.63 5.09, 0.52 4.94, 0.43 4.78 C0.33 4.62, 0.26 4.45, 0.19 4.28 C0.13 4.1, 0.08 3.92, 0.05 3.74 C0.02 3.56, 0 3.37, 0 3.19 C0 3, 0.02 2.81, 0.05 2.63 C0.08 2.45, 0.13 2.27, 0.19 2.1 C0.26 1.92, 0.33 1.75, 0.43 1.59 C0.52 1.43, 0.63 1.28, 0.75 1.14 C0.86 1, 1 0.86, 1.14 0.75 C1.28 0.63, 1.43 0.52, 1.59 0.43 C1.75 0.33, 1.92 0.26, 2.1 0.19 C2.27 0.13, 2.45 0.08, 2.63 0.05 C2.81 0.02, 3 0, 3.19 0 C3.37 0, 3.56 0.02, 3.74 0.05 C3.92 0.08, 4.1 0.13, 4.28 0.19 C4.45 0.26, 4.62 0.33, 4.78 0.43 C4.94 0.52, 5.09 0.63, 5.23 0.75 C5.38 0.86, 5.51 1, 5.63 1.14 C5.75 1.28, 5.85 1.43, 5.95 1.59 C6.04 1.75, 6.12 1.92, 6.18 2.1 C6.24 2.27, 6.29 2.45, 6.32 2.63 C6.36 2.81, 6.36 3.09, 6.37 3.19 C6.38 3.28, 6.38 3.09, 6.37 3.19" stroke="transparent" stroke-width="1" fill="none"></path></g><g stroke-opacity="0.9" fill-opacity="0.9" transform="translate(1592.5 510) rotate(0 64.5 14.5)"><text x="64.5" y="22" font-family="Helvetica, Segoe UI Emoji" font-size="28px" fill="#495057" text-anchor="middle" style="white-space: pre;" direction="ltr">url-service</text></g><g stroke-linecap="round" transform="translate(1430 750) rotate(0 180 81)"><path d="M40.5 0 L319.5 0 L328.99 0.63 L337.22 2.53 L344.18 5.7 L349.87 10.13 L354.3 15.82 L357.47 22.78 L359.37 31.01 L360 40.5 L360 121.5 L359.37 130.99 L357.47 139.22 L354.3 146.18 L349.87 151.88 L344.18 156.3 L337.22 159.47 L328.99 161.37 L319.5 162 L40.5 162 L31.01 161.37 L22.78 159.47 L15.82 156.3 L10.13 151.88 L5.7 146.18 L2.53 139.22 L0.63 130.99 L0 121.5 L0 40.5 L0.63 31.01 L2.53 22.78 L5.7 15.82 L10.13 10.13 L15.82 5.7 L22.78 2.53 L31.01 0.63 L40.5 0" stroke="none" stroke-width="0" fill="#FFF"></path><path d="M40.5 0 M40.5 0 C123.24 0, 205.98 0, 319.5 0 M40.5 0 C119.34 0, 198.18 0, 319.5 0 M319.5 0 C346.5 0, 360 13.5, 360 40.5 M319.5 0 C346.5 0, 360 13.5, 360 40.5 M360 40.5 C360 61.28, 360 82.06, 360 121.5 M360 40.5 C360 64.06, 360 87.63, 360 121.5 M360 121.5 C360 148.5, 346.5 162, 319.5 162 M360 121.5 C360 148.5, 346.5 162, 319.5 162 M319.5 162 C241.73 162, 163.95 162, 40.5 162 M319.5 162 C232.28 162, 145.06 162, 40.5 162 M40.5 162 C13.5 162, 0 148.5, 0 121.5 M40.5 162 C13.5 162, 0 148.5, 0 121.5 M0 121.5 C0 104.67, 0 87.83, 0 40.5 M0 121.5 C0 104.66, 0 87.82, 0 40.5 M0 40.5 C0 13.5, 13.5 0, 40.5 0 M0 40.5 C0 13.5, 13.5 0, 40.5 0" stroke="#4285f4" stroke-width="2" fill="none"></path></g><g transform="translate(1576.2499999999995 815.2499999999999) rotate(0 95.625 15.75)"><text x="0" y="24.50000000000001" font-family="Helvetica, Segoe UI Emoji" font-size="27.000000000000004px" fill="#000000" text-anchor="start" style="white-space: pre;" direction="ltr">Cloud Firestore</text></g><g stroke-linecap="round"><g transform="translate(1515.125 827.333333969116) rotate(0 1.5 6.666667461395264)" fill-rule="evenodd"><path d="M15 6.67 L-12 -5.33 L-12 6.67 L15 18.67 L15 6.67" stroke="none" stroke-width="0" fill="#669df6" fill-rule="evenodd"></path><path d="M15 6.67 C6.52 2.9, -1.95 -0.87, -12 -5.33 M15 6.67 C8.2 3.65, 1.41 0.62, -12 -5.33 M-12 -5.33 C-12 -2.38, -12 0.57, -12 6.67 M-12 -5.33 C-12 -2.66, -12 0.01, -12 6.67 M-12 6.67 C-4.13 10.16, 3.74 13.66, 15 18.67 M-12 6.67 C-1.31 11.42, 9.39 16.17, 15 18.67 M15 18.67 C15 14.8, 15 10.93, 15 6.67 M15 18.67 C15 15.5, 15 12.34, 15 6.67 M15 6.67 C15 6.67, 15 6.67, 15 6.67 M15 6.67 C15 6.67, 15 6.67, 15 6.67" stroke="#00000000" stroke-width="1" fill="none"></path></g></g><g stroke-linecap="round"><g transform="translate(1515.125 806.3333334326746) rotate(0 1.5 6.6666673719882965)" fill-rule="evenodd"><path d="M15 6.67 L-12 -5.33 L-12 6.67 L15 18.67 L15 6.67" stroke="none" stroke-width="0" fill="#669df6" fill-rule="evenodd"></path><path d="M15 6.67 C9.21 4.09, 3.42 1.52, -12 -5.33 M15 6.67 C7.54 3.35, 0.08 0.04, -12 -5.33 M-12 -5.33 C-12 -0.56, -12 4.22, -12 6.67 M-12 -5.33 C-12 -1.51, -12 2.31, -12 6.67 M-12 6.67 C-1.64 11.27, 8.72 15.87, 15 18.67 M-12 6.67 C-2.49 10.89, 7.02 15.12, 15 18.67 M15 18.67 C15 14.96, 15 11.25, 15 6.67 M15 18.67 C15 15.21, 15 11.75, 15 6.67 M15 6.67 C15 6.67, 15 6.67, 15 6.67 M15 6.67 C15 6.67, 15 6.67, 15 6.67" stroke="#00000000" stroke-width="1" fill="none"></path></g></g><g stroke-linecap="round"><g transform="translate(1476.125 806.3333334326746) rotate(0 13.5 6.6666673719882965)" fill-rule="evenodd"><path d="M0 6.67 L27 -5.33 L27 6.67 L0 18.67 L0 6.67 L0 6.67" stroke="none" stroke-width="0" fill="#aecbfa" fill-rule="evenodd"></path><path d="M0 6.67 C7.04 3.54, 14.09 0.41, 27 -5.33 M0 6.67 C10.53 1.99, 21.06 -2.69, 27 -5.33 M27 -5.33 C27 -2.41, 27 0.5, 27 6.67 M27 -5.33 C27 -2.72, 27 -0.11, 27 6.67 M27 6.67 C20.41 9.59, 13.82 12.52, 0 18.67 M27 6.67 C19.85 9.84, 12.7 13.02, 0 18.67 M0 18.67 C0 14.59, 0 10.51, 0 6.67 M0 18.67 C0 15.28, 0 11.88, 0 6.67 M0 6.67 C0 6.67, 0 6.67, 0 6.67 M0 6.67 C0 6.67, 0 6.67, 0 6.67 M0 6.67 C0 6.67, 0 6.67, 0 6.67 M0 6.67 C0 6.67, 0 6.67, 0 6.67" stroke="#00000000" stroke-width="1" fill="none"></path></g></g><g stroke-linecap="round"><g transform="translate(1476.125 827.333333969116) rotate(0 13.5 6.666667461395264)" fill-rule="evenodd"><path d="M0 6.67 L27 -5.33 L27 6.67 L0 18.67 L0 6.67 L0 6.67" stroke="none" stroke-width="0" fill="#aecbfa" fill-rule="evenodd"></path><path d="M0 6.67 C10.69 1.92, 21.38 -2.84, 27 -5.33 M0 6.67 C9.88 2.27, 19.77 -2.12, 27 -5.33 M27 -5.33 C27 -1.63, 27 2.08, 27 6.67 M27 -5.33 C27 -1.98, 27 1.37, 27 6.67 M27 6.67 C17.83 10.74, 8.65 14.82, 0 18.67 M27 6.67 C19.4 10.05, 11.79 13.43, 0 18.67 M0 18.67 C0 15.81, 0 12.96, 0 6.67 M0 18.67 C0 15.87, 0 13.08, 0 6.67 M0 6.67 C0 6.67, 0 6.67, 0 6.67 M0 6.67 C0 6.67, 0 6.67, 0 6.67 M0 6.67 C0 6.67, 0 6.67, 0 6.67 M0 6.67 C0 6.67, 0 6.67, 0 6.67" stroke="#00000000" stroke-width="1" fill="none"></path></g></g><g stroke-linecap="round"><g transform="translate(1503.125 846.5000000000001) rotate(0 11.81999945640564 6.250000715255737)" fill-rule="evenodd"><path d="M0 2.5 L10.11 -2 L23.64 4 L0 14.5 L0 2.5 L0 2.5" stroke="none" stroke-width="0" fill="#4285f4" fill-rule="evenodd"></path><path d="M0 2.5 C2.42 1.42, 4.84 0.35, 10.11 -2 M0 2.5 C3.76 0.83, 7.51 -0.84, 10.11 -2 M10.11 -2 C14.26 -0.16, 18.42 1.68, 23.64 4 M10.11 -2 C13.91 -0.32, 17.71 1.37, 23.64 4 M23.64 4 C18.31 6.37, 12.97 8.74, 0 14.5 M23.64 4 C16.75 7.06, 9.86 10.12, 0 14.5 M0 14.5 C0 10.7, 0 6.89, 0 2.5 M0 14.5 C0 10.62, 0 6.74, 0 2.5 M0 2.5 C0 2.5, 0 2.5, 0 2.5 M0 2.5 C0 2.5, 0 2.5, 0 2.5 M0 2.5 C0 2.5, 0 2.5, 0 2.5 M0 2.5 C0 2.5, 0 2.5, 0 2.5" stroke="#00000000" stroke-width="1" fill="none"></path></g></g><g stroke-linecap="round"><g transform="translate(1630 650) rotate(0 0 50)"><path d="M0 0 C0 16.67, 0 83.33, 0 100 M0 0 C0 16.67, 0 83.33, 0 100" stroke="#364fc7" stroke-width="2" fill="none"></path></g><g transform="translate(1630 650) rotate(0 0 50)"><path d="M0 100 L-6.34 86.41 L6.34 86.41 L0 100" stroke="none" stroke-width="0" fill="#364fc7" fill-rule="evenodd"></path><path d="M0 100 C-1.76 96.22, -3.53 92.44, -6.34 86.41 M0 100 C-1.37 97.06, -2.74 94.11, -6.34 86.41 M-6.34 86.41 C-2.57 86.41, 1.19 86.41, 6.34 86.41 M-6.34 86.41 C-2.53 86.41, 1.28 86.41, 6.34 86.41 M6.34 86.41 C3.84 91.76, 1.35 97.11, 0 100 M6.34 86.41 C4.88 89.54, 3.42 92.67, 0 100 M0 100 C0 100, 0 100, 0 100 M0 100 C0 100, 0 100, 0 100" stroke="#364fc7" stroke-width="2" fill="none"></path></g></g><g stroke-linecap="round"><g transform="translate(1270 570) rotate(0 79.5 0)"><path d="M0 0 C26.5 0, 132.5 0, 159 0 M0 0 C26.5 0, 132.5 0, 159 0" stroke="#364fc7" stroke-width="2" fill="none"></path></g><g transform="translate(1270 570) rotate(0 79.5 0)"><path d="M159 0 L145.41 6.34 L145.41 -6.34 L159 0" stroke="none" stroke-width="0" fill="#364fc7" fill-rule="evenodd"></path><path d="M159 0 C153.88 2.39, 148.77 4.77, 145.41 6.34 M159 0 C153.7 2.47, 148.39 4.95, 145.41 6.34 M145.41 6.34 C145.41 1.55, 145.41 -3.24, 145.41 -6.34 M145.41 6.34 C145.41 3.56, 145.41 0.79, 145.41 -6.34 M145.41 -6.34 C150.82 -3.82, 156.23 -1.29, 159 0 M145.41 -6.34 C150.66 -3.89, 155.9 -1.44, 159 0 M159 0 C159 0, 159 0, 159 0 M159 0 C159 0, 159 0, 159 0" stroke="#364fc7" stroke-width="2" fill="none"></path></g></g><g transform="translate(1590 770) rotate(0 83 14.5)"><text x="83" y="22" font-family="Helvetica, Segoe UI Emoji" font-size="28px" fill="#495057" text-anchor="middle" style="white-space: pre;" direction="ltr">Storing URLs</text></g><g stroke-linecap="round" transform="translate(910 490) rotate(0 182.22222222222217 81.99999999999994)"><path d="M41 0 L323.44 0 L333.05 0.64 L341.38 2.56 L348.43 5.77 L354.19 10.25 L358.68 16.02 L361.88 23.06 L363.8 31.39 L364.44 41 L364.44 123 L363.8 132.61 L361.88 140.94 L358.68 147.98 L354.19 153.75 L348.43 158.23 L341.38 161.44 L333.05 163.36 L323.44 164 L41 164 L31.39 163.36 L23.06 161.44 L16.02 158.23 L10.25 153.75 L5.77 147.98 L2.56 140.94 L0.64 132.61 L0 123 L0 41 L0.64 31.39 L2.56 23.06 L5.77 16.02 L10.25 10.25 L16.02 5.77 L23.06 2.56 L31.39 0.64 L41 0" stroke="none" stroke-width="0" fill="#FFF"></path><path d="M41 0 M41 0 C142.58 0, 244.15 0, 323.44 0 M41 0 C103.88 0, 166.77 0, 323.44 0 M323.44 0 C350.78 0, 364.44 13.67, 364.44 41 M323.44 0 C350.78 0, 364.44 13.67, 364.44 41 M364.44 41 C364.44 61.12, 364.44 81.24, 364.44 123 M364.44 41 C364.44 61.05, 364.44 81.11, 364.44 123 M364.44 123 C364.44 150.33, 350.78 164, 323.44 164 M364.44 123 C364.44 150.33, 350.78 164, 323.44 164 M323.44 164 C235.56 164, 147.67 164, 41 164 M323.44 164 C244.6 164, 165.75 164, 41 164 M41 164 C13.67 164, 0 150.33, 0 123 M41 164 C13.67 164, 0 150.33, 0 123 M0 123 C0 94.99, 0 66.98, 0 41 M0 123 C0 93.63, 0 64.27, 0 41 M0 41 C0 13.67, 13.67 0, 41 0 M0 41 C0 13.67, 13.67 0, 41 0" stroke="#4285f4" stroke-width="2" fill="none"></path></g><g transform="translate(1058.0555555555543 556.0555555555554) rotate(0 96.80555555555554 15.944444444444457)"><text x="0" y="24.888888888888882" font-family="Helvetica, Segoe UI Emoji" font-size="27.33333333333332px" fill="#000000" text-anchor="start" style="white-space: pre;" direction="ltr">API Gateway</text></g><g stroke-linecap="round"><g transform="translate(974.0804063479115 547.4488778909042) rotate(0 9.966012663311403 3.170303463935852)" fill-rule="evenodd"><path d="M9.97 2.93 L9.97 2.93 L10.96 2.94 L11.95 3 L12.93 3.11 L13.89 3.26 L14.85 3.47 L15.8 3.71 L16.73 4.01 L17.64 4.35 L18.54 4.74 L19.41 5.16 L20.27 5.63 L21.1 6.15 L21.91 6.7 L22.69 7.3 L23.45 7.94 L24.17 8.61 L27.73 5.07 L27.73 5.07 L26.79 4.18 L25.82 3.35 L24.82 2.57 L23.79 1.85 L22.73 1.19 L21.65 0.59 L20.55 0.04 L19.42 -0.45 L18.28 -0.88 L17.12 -1.25 L15.95 -1.57 L14.77 -1.83 L13.57 -2.03 L12.37 -2.17 L11.17 -2.26 L9.97 -2.29 L8.76 -2.26 L7.56 -2.18 L6.36 -2.03 L5.17 -1.83 L3.98 -1.57 L2.81 -1.26 L1.65 -0.88 L0.51 -0.45 L-0.61 0.04 L-1.72 0.58 L-2.8 1.19 L-3.86 1.85 L-4.89 2.57 L-5.89 3.34 L-6.86 4.18 L-7.8 5.07 L-4.24 8.63 L-4.24 8.63 L-3.51 7.95 L-2.76 7.31 L-1.98 6.71 L-1.17 6.16 L-0.33 5.64 L0.52 5.17 L1.4 4.74 L2.3 4.35 L3.21 4.01 L4.14 3.72 L5.09 3.47 L6.05 3.26 L7.01 3.11 L7.99 3 L8.98 2.94 L9.97 2.93 L9.97 2.93" stroke="none" stroke-width="0" fill="#4285f4" fill-rule="evenodd"></path><path d="M9.97 2.93 C9.97 2.93, 9.97 2.93, 9.97 2.93 M9.97 2.93 C9.97 2.93, 9.97 2.93, 9.97 2.93 M9.97 2.93 C10.21 2.93, 10.45 2.93, 10.96 2.94 M9.97 2.93 C10.32 2.93, 10.67 2.93, 10.96 2.94 M10.96 2.94 C11.33 2.96, 11.7 2.98, 11.95 3 M10.96 2.94 C11.27 2.96, 11.58 2.98, 11.95 3 M11.95 3 C12.33 3.04, 12.71 3.08, 12.93 3.11 M11.95 3 C12.22 3.03, 12.5 3.06, 12.93 3.11 M12.93 3.11 C13.24 3.16, 13.56 3.21, 13.89 3.26 M12.93 3.11 C13.19 3.15, 13.45 3.19, 13.89 3.26 M13.89 3.26 C14.24 3.34, 14.59 3.41, 14.85 3.47 M13.89 3.26 C14.2 3.33, 14.5 3.39, 14.85 3.47 M14.85 3.47 C15.08 3.52, 15.3 3.58, 15.8 3.71 M14.85 3.47 C15.15 3.54, 15.44 3.62, 15.8 3.71 M15.8 3.71 C16.17 3.83, 16.53 3.95, 16.73 4.01 M15.8 3.71 C16.09 3.81, 16.39 3.9, 16.73 4.01 M16.73 4.01 C16.93 4.08, 17.13 4.16, 17.64 4.35 M16.73 4.01 C17.07 4.14, 17.41 4.27, 17.64 4.35 M17.64 4.35 C17.96 4.49, 18.29 4.63, 18.54 4.74 M17.64 4.35 C17.85 4.44, 18.05 4.53, 18.54 4.74 M18.54 4.74 C18.87 4.9, 19.21 5.06, 19.41 5.16 M18.54 4.74 C18.82 4.88, 19.11 5.02, 19.41 5.16 M19.41 5.16 C19.66 5.3, 19.9 5.43, 20.27 5.63 M19.41 5.16 C19.72 5.33, 20.03 5.5, 20.27 5.63 M20.27 5.63 C20.55 5.81, 20.83 5.98, 21.1 6.15 M20.27 5.63 C20.49 5.77, 20.7 5.9, 21.1 6.15 M21.1 6.15 C21.29 6.28, 21.48 6.41, 21.91 6.7 M21.1 6.15 C21.35 6.32, 21.61 6.5, 21.91 6.7 M21.91 6.7 C22.15 6.88, 22.38 7.06, 22.69 7.3 M21.91 6.7 C22.21 6.94, 22.52 7.17, 22.69 7.3 M22.69 7.3 C22.87 7.45, 23.06 7.61, 23.45 7.94 M22.69 7.3 C22.88 7.46, 23.07 7.62, 23.45 7.94 M23.45 7.94 C23.72 8.19, 23.99 8.45, 24.17 8.61 M23.45 7.94 C23.71 8.18, 23.97 8.43, 24.17 8.61 M24.17 8.61 C25.49 7.3, 26.81 5.99, 27.73 5.07 M24.17 8.61 C24.96 7.83, 25.75 7.04, 27.73 5.07 M27.73 5.07 C27.73 5.07, 27.73 5.07, 27.73 5.07 M27.73 5.07 C27.73 5.07, 27.73 5.07, 27.73 5.07 M27.73 5.07 C27.51 4.86, 27.28 4.64, 26.79 4.18 M27.73 5.07 C27.5 4.85, 27.27 4.63, 26.79 4.18 M26.79 4.18 C26.42 3.86, 26.04 3.53, 25.82 3.35 M26.79 4.18 C26.45 3.88, 26.1 3.58, 25.82 3.35 M25.82 3.35 C25.51 3.1, 25.19 2.86, 24.82 2.57 M25.82 3.35 C25.59 3.17, 25.36 2.99, 24.82 2.57 M24.82 2.57 C24.48 2.33, 24.13 2.09, 23.79 1.85 M24.82 2.57 C24.51 2.35, 24.2 2.13, 23.79 1.85 M23.79 1.85 C23.56 1.71, 23.33 1.57, 22.73 1.19 M23.79 1.85 C23.54 1.69, 23.28 1.53, 22.73 1.19 M22.73 1.19 C22.5 1.06, 22.27 0.93, 21.65 0.59 M22.73 1.19 C22.37 0.99, 22 0.78, 21.65 0.59 M21.65 0.59 C21.43 0.48, 21.2 0.37, 20.55 0.04 M21.65 0.59 C21.39 0.46, 21.13 0.33, 20.55 0.04 M20.55 0.04 C20.19 -0.12, 19.83 -0.27, 19.42 -0.45 M20.55 0.04 C20.16 -0.13, 19.78 -0.29, 19.42 -0.45 M19.42 -0.45 C19.09 -0.57, 18.76 -0.7, 18.28 -0.88 M19.42 -0.45 C19.03 -0.6, 18.64 -0.74, 18.28 -0.88 M18.28 -0.88 C17.98 -0.98, 17.68 -1.07, 17.12 -1.25 M18.28 -0.88 C18.02 -0.96, 17.77 -1.04, 17.12 -1.25 M17.12 -1.25 C16.73 -1.36, 16.34 -1.46, 15.95 -1.57 M17.12 -1.25 C16.69 -1.37, 16.26 -1.49, 15.95 -1.57 M15.95 -1.57 C15.69 -1.63, 15.43 -1.68, 14.77 -1.83 M15.95 -1.57 C15.71 -1.62, 15.47 -1.67, 14.77 -1.83 M14.77 -1.83 C14.35 -1.9, 13.94 -1.97, 13.57 -2.03 M14.77 -1.83 C14.42 -1.89, 14.08 -1.95, 13.57 -2.03 M13.57 -2.03 C13.21 -2.07, 12.84 -2.12, 12.37 -2.17 M13.57 -2.03 C13.16 -2.08, 12.74 -2.13, 12.37 -2.17 M12.37 -2.17 C11.91 -2.21, 11.44 -2.24, 11.17 -2.26 M12.37 -2.17 C11.93 -2.21, 11.49 -2.24, 11.17 -2.26 M11.17 -2.26 C10.92 -2.27, 10.66 -2.27, 9.97 -2.29 M11.17 -2.26 C10.89 -2.27, 10.6 -2.28, 9.97 -2.29 M9.97 -2.29 C9.65 -2.28, 9.34 -2.28, 8.76 -2.26 M9.97 -2.29 C9.68 -2.28, 9.39 -2.28, 8.76 -2.26 M8.76 -2.26 C8.37 -2.23, 7.98 -2.21, 7.56 -2.18 M8.76 -2.26 C8.42 -2.24, 8.08 -2.21, 7.56 -2.18 M7.56 -2.18 C7.3 -2.15, 7.03 -2.11, 6.36 -2.03 M7.56 -2.18 C7.3 -2.15, 7.04 -2.11, 6.36 -2.03 M6.36 -2.03 C6.08 -1.99, 5.8 -1.94, 5.17 -1.83 M6.36 -2.03 C6.09 -1.99, 5.82 -1.94, 5.17 -1.83 M5.17 -1.83 C4.85 -1.76, 4.54 -1.69, 3.98 -1.57 M5.17 -1.83 C4.71 -1.73, 4.26 -1.63, 3.98 -1.57 M3.98 -1.57 C3.7 -1.5, 3.42 -1.42, 2.81 -1.26 M3.98 -1.57 C3.71 -1.5, 3.45 -1.43, 2.81 -1.26 M2.81 -1.26 C2.52 -1.16, 2.22 -1.07, 1.65 -0.88 M2.81 -1.26 C2.45 -1.14, 2.1 -1.03, 1.65 -0.88 M1.65 -0.88 C1.4 -0.79, 1.15 -0.69, 0.51 -0.45 M1.65 -0.88 C1.22 -0.72, 0.78 -0.56, 0.51 -0.45 M0.51 -0.45 C0.08 -0.27, -0.35 -0.08, -0.61 0.04 M0.51 -0.45 C0.14 -0.29, -0.24 -0.13, -0.61 0.04 M-0.61 0.04 C-1.02 0.24, -1.42 0.44, -1.72 0.58 M-0.61 0.04 C-1.06 0.25, -1.5 0.47, -1.72 0.58 M-1.72 0.58 C-2.04 0.76, -2.37 0.94, -2.8 1.19 M-1.72 0.58 C-2.01 0.75, -2.31 0.91, -2.8 1.19 M-2.8 1.19 C-3.08 1.36, -3.35 1.53, -3.86 1.85 M-2.8 1.19 C-3.15 1.4, -3.49 1.62, -3.86 1.85 M-3.86 1.85 C-4.07 1.99, -4.28 2.14, -4.89 2.57 M-3.86 1.85 C-4.19 2.08, -4.53 2.31, -4.89 2.57 M-4.89 2.57 C-5.28 2.87, -5.67 3.17, -5.89 3.34 M-4.89 2.57 C-5.13 2.75, -5.36 2.93, -5.89 3.34 M-5.89 3.34 C-6.22 3.62, -6.54 3.9, -6.86 4.18 M-5.89 3.34 C-6.24 3.64, -6.58 3.94, -6.86 4.18 M-6.86 4.18 C-7.08 4.38, -7.29 4.59, -7.8 5.07 M-6.86 4.18 C-7.16 4.46, -7.46 4.75, -7.8 5.07 M-7.8 5.07 C-6.77 6.1, -5.75 7.12, -4.24 8.63 M-7.8 5.07 C-7.02 5.85, -6.25 6.62, -4.24 8.63 M-4.24 8.63 C-4.24 8.63, -4.24 8.63, -4.24 8.63 M-4.24 8.63 C-4.24 8.63, -4.24 8.63, -4.24 8.63 M-4.24 8.63 C-4.02 8.42, -3.79 8.21, -3.51 7.95 M-4.24 8.63 C-4.07 8.47, -3.9 8.31, -3.51 7.95 M-3.51 7.95 C-3.23 7.71, -2.95 7.47, -2.76 7.31 M-3.51 7.95 C-3.33 7.8, -3.15 7.64, -2.76 7.31 M-2.76 7.31 C-2.46 7.08, -2.16 6.85, -1.98 6.71 M-2.76 7.31 C-2.52 7.13, -2.28 6.95, -1.98 6.71 M-1.98 6.71 C-1.71 6.53, -1.43 6.34, -1.17 6.16 M-1.98 6.71 C-1.81 6.6, -1.64 6.48, -1.17 6.16 M-1.17 6.16 C-0.87 5.97, -0.58 5.79, -0.33 5.64 M-1.17 6.16 C-1 6.05, -0.83 5.95, -0.33 5.64 M-0.33 5.64 C-0.06 5.49, 0.21 5.34, 0.52 5.17 M-0.33 5.64 C-0.16 5.55, 0.01 5.45, 0.52 5.17 M0.52 5.17 C0.7 5.08, 0.88 4.99, 1.4 4.74 M0.52 5.17 C0.78 5.04, 1.03 4.92, 1.4 4.74 M1.4 4.74 C1.67 4.62, 1.94 4.5, 2.3 4.35 M1.4 4.74 C1.72 4.6, 2.04 4.46, 2.3 4.35 M2.3 4.35 C2.64 4.23, 2.98 4.1, 3.21 4.01 M2.3 4.35 C2.66 4.22, 3.02 4.08, 3.21 4.01 M3.21 4.01 C3.45 3.94, 3.69 3.86, 4.14 3.72 M3.21 4.01 C3.52 3.92, 3.82 3.82, 4.14 3.72 M4.14 3.72 C4.37 3.66, 4.6 3.6, 5.09 3.47 M4.14 3.72 C4.44 3.64, 4.74 3.56, 5.09 3.47 M5.09 3.47 C5.33 3.41, 5.58 3.36, 6.05 3.26 M5.09 3.47 C5.47 3.39, 5.84 3.31, 6.05 3.26 M6.05 3.26 C6.28 3.22, 6.52 3.19, 7.01 3.11 M6.05 3.26 C6.38 3.21, 6.72 3.15, 7.01 3.11 M7.01 3.11 C7.37 3.07, 7.73 3.03, 7.99 3 M7.01 3.11 C7.38 3.07, 7.74 3.03, 7.99 3 M7.99 3 C8.35 2.98, 8.7 2.95, 8.98 2.94 M7.99 3 C8.33 2.98, 8.68 2.96, 8.98 2.94 M8.98 2.94 C9.33 2.93, 9.68 2.93, 9.97 2.93 M8.98 2.94 C9.26 2.93, 9.55 2.93, 9.97 2.93 M9.97 2.93 C9.97 2.93, 9.97 2.93, 9.97 2.93 M9.97 2.93 C9.97 2.93, 9.97 2.93, 9.97 2.93 M9.97 2.93 C9.97 2.93, 9.97 2.93, 9.97 2.93 M9.97 2.93 C9.97 2.93, 9.97 2.93, 9.97 2.93" stroke="#00000000" stroke-width="1" fill="none"></path></g></g><g stroke-linecap="round"><g transform="translate(974.0804063479115 586.9860752953421) rotate(0 9.966012663311403 2.964675479465086)" fill-rule="evenodd"><path d="M9.97 3.19 L9.97 3.19 L8.97 3.18 L7.99 3.12 L7.01 3.01 L6.04 2.85 L5.08 2.65 L4.13 2.4 L3.2 2.11 L2.29 1.77 L1.39 1.38 L0.52 0.95 L-0.34 0.48 L-1.17 -0.03 L-1.98 -0.59 L-2.76 -1.18 L-3.51 -1.82 L-4.24 -2.5 L-7.8 1.06 L-7.8 1.06 L-6.86 1.95 L-5.89 2.79 L-4.89 3.56 L-3.86 4.28 L-2.8 4.94 L-1.72 5.55 L-0.61 6.09 L0.51 6.58 L1.65 7.01 L2.81 7.39 L3.98 7.7 L5.17 7.96 L6.36 8.17 L7.56 8.31 L8.76 8.4 L9.97 8.43 L11.17 8.4 L12.37 8.31 L13.57 8.17 L14.77 7.97 L15.95 7.71 L17.12 7.39 L18.28 7.02 L19.42 6.59 L20.55 6.1 L21.65 5.55 L22.73 4.95 L23.79 4.29 L24.82 3.57 L25.82 2.79 L26.79 1.96 L27.73 1.06 L24.17 -2.5 L24.17 -2.5 L23.45 -1.82 L22.7 -1.18 L21.92 -0.58 L21.11 -0.02 L20.28 0.49 L19.42 0.97 L18.55 1.39 L17.65 1.78 L16.73 2.12 L15.8 2.41 L14.86 2.66 L13.9 2.86 L12.93 3.02 L11.95 3.12 L10.96 3.18 L9.97 3.19 L9.97 3.19" stroke="none" stroke-width="0" fill="#4285f4" fill-rule="evenodd"></path><path d="M9.97 3.19 C9.97 3.19, 9.97 3.19, 9.97 3.19 M9.97 3.19 C9.97 3.19, 9.97 3.19, 9.97 3.19 M9.97 3.19 C9.73 3.19, 9.49 3.18, 8.97 3.18 M9.97 3.19 C9.63 3.19, 9.29 3.18, 8.97 3.18 M8.97 3.18 C8.74 3.16, 8.5 3.15, 7.99 3.12 M8.97 3.18 C8.71 3.16, 8.44 3.15, 7.99 3.12 M7.99 3.12 C7.74 3.09, 7.5 3.07, 7.01 3.01 M7.99 3.12 C7.6 3.08, 7.22 3.03, 7.01 3.01 M7.01 3.01 C6.67 2.96, 6.34 2.9, 6.04 2.85 M7.01 3.01 C6.64 2.95, 6.27 2.89, 6.04 2.85 M6.04 2.85 C5.73 2.79, 5.43 2.73, 5.08 2.65 M6.04 2.85 C5.7 2.78, 5.36 2.71, 5.08 2.65 M5.08 2.65 C4.73 2.56, 4.38 2.47, 4.13 2.4 M5.08 2.65 C4.76 2.57, 4.45 2.48, 4.13 2.4 M4.13 2.4 C3.81 2.3, 3.49 2.2, 3.2 2.11 M4.13 2.4 C3.81 2.3, 3.49 2.2, 3.2 2.11 M3.2 2.11 C3 2.03, 2.79 1.95, 2.29 1.77 M3.2 2.11 C2.94 2.01, 2.68 1.91, 2.29 1.77 M2.29 1.77 C1.96 1.62, 1.63 1.48, 1.39 1.38 M2.29 1.77 C2.08 1.68, 1.87 1.59, 1.39 1.38 M1.39 1.38 C1.05 1.21, 0.7 1.04, 0.52 0.95 M1.39 1.38 C1.14 1.26, 0.89 1.13, 0.52 0.95 M0.52 0.95 C0.32 0.84, 0.12 0.73, -0.34 0.48 M0.52 0.95 C0.25 0.8, -0.02 0.65, -0.34 0.48 M-0.34 0.48 C-0.52 0.37, -0.71 0.25, -1.17 -0.03 M-0.34 0.48 C-0.65 0.29, -0.97 0.09, -1.17 -0.03 M-1.17 -0.03 C-1.43 -0.21, -1.69 -0.39, -1.98 -0.59 M-1.17 -0.03 C-1.38 -0.18, -1.59 -0.32, -1.98 -0.59 M-1.98 -0.59 C-2.17 -0.73, -2.36 -0.88, -2.76 -1.18 M-1.98 -0.59 C-2.22 -0.77, -2.46 -0.96, -2.76 -1.18 M-2.76 -1.18 C-2.95 -1.34, -3.14 -1.5, -3.51 -1.82 M-2.76 -1.18 C-3.04 -1.42, -3.32 -1.66, -3.51 -1.82 M-3.51 -1.82 C-3.71 -2, -3.91 -2.19, -4.24 -2.5 M-3.51 -1.82 C-3.68 -1.97, -3.84 -2.13, -4.24 -2.5 M-4.24 -2.5 C-5.45 -1.28, -6.67 -0.07, -7.8 1.06 M-4.24 -2.5 C-5.34 -1.39, -6.44 -0.29, -7.8 1.06 M-7.8 1.06 C-7.8 1.06, -7.8 1.06, -7.8 1.06 M-7.8 1.06 C-7.8 1.06, -7.8 1.06, -7.8 1.06 M-7.8 1.06 C-7.46 1.39, -7.12 1.71, -6.86 1.95 M-7.8 1.06 C-7.45 1.4, -7.1 1.73, -6.86 1.95 M-6.86 1.95 C-6.52 2.25, -6.18 2.54, -5.89 2.79 M-6.86 1.95 C-6.5 2.27, -6.14 2.58, -5.89 2.79 M-5.89 2.79 C-5.49 3.1, -5.09 3.41, -4.89 3.56 M-5.89 2.79 C-5.67 2.96, -5.46 3.12, -4.89 3.56 M-4.89 3.56 C-4.58 3.78, -4.26 4, -3.86 4.28 M-4.89 3.56 C-4.49 3.84, -4.09 4.12, -3.86 4.28 M-3.86 4.28 C-3.47 4.52, -3.09 4.77, -2.8 4.94 M-3.86 4.28 C-3.5 4.51, -3.13 4.74, -2.8 4.94 M-2.8 4.94 C-2.52 5.1, -2.23 5.26, -1.72 5.55 M-2.8 4.94 C-2.43 5.15, -2.05 5.36, -1.72 5.55 M-1.72 5.55 C-1.39 5.71, -1.05 5.88, -0.61 6.09 M-1.72 5.55 C-1.5 5.66, -1.28 5.77, -0.61 6.09 M-0.61 6.09 C-0.26 6.25, 0.09 6.4, 0.51 6.58 M-0.61 6.09 C-0.29 6.23, 0.03 6.37, 0.51 6.58 M0.51 6.58 C0.83 6.7, 1.14 6.82, 1.65 7.01 M0.51 6.58 C0.84 6.71, 1.17 6.83, 1.65 7.01 M1.65 7.01 C1.92 7.1, 2.18 7.18, 2.81 7.39 M1.65 7.01 C1.93 7.1, 2.21 7.19, 2.81 7.39 M2.81 7.39 C3.14 7.48, 3.48 7.57, 3.98 7.7 M2.81 7.39 C3.11 7.47, 3.4 7.55, 3.98 7.7 M3.98 7.7 C4.4 7.8, 4.81 7.89, 5.17 7.96 M3.98 7.7 C4.39 7.79, 4.8 7.88, 5.17 7.96 M5.17 7.96 C5.57 8.03, 5.98 8.1, 6.36 8.17 M5.17 7.96 C5.63 8.04, 6.09 8.12, 6.36 8.17 M6.36 8.17 C6.72 8.21, 7.07 8.25, 7.56 8.31 M6.36 8.17 C6.75 8.21, 7.15 8.26, 7.56 8.31 M7.56 8.31 C8.04 8.34, 8.51 8.38, 8.76 8.4 M7.56 8.31 C7.96 8.34, 8.37 8.37, 8.76 8.4 M8.76 8.4 C9.09 8.4, 9.42 8.41, 9.97 8.43 M8.76 8.4 C9.03 8.4, 9.3 8.41, 9.97 8.43 M9.97 8.43 C10.24 8.42, 10.51 8.41, 11.17 8.4 M9.97 8.43 C10.44 8.41, 10.91 8.4, 11.17 8.4 M11.17 8.4 C11.59 8.37, 12 8.34, 12.37 8.31 M11.17 8.4 C11.48 8.37, 11.79 8.35, 12.37 8.31 M12.37 8.31 C12.76 8.26, 13.15 8.22, 13.57 8.17 M12.37 8.31 C12.85 8.25, 13.32 8.2, 13.57 8.17 M13.57 8.17 C14.01 8.09, 14.45 8.02, 14.77 7.97 M13.57 8.17 C14 8.1, 14.43 8.02, 14.77 7.97 M14.77 7.97 C15.03 7.91, 15.29 7.85, 15.95 7.71 M14.77 7.97 C15.04 7.91, 15.32 7.85, 15.95 7.71 M15.95 7.71 C16.27 7.62, 16.58 7.54, 17.12 7.39 M15.95 7.71 C16.25 7.63, 16.54 7.55, 17.12 7.39 M17.12 7.39 C17.55 7.25, 17.98 7.12, 18.28 7.02 M17.12 7.39 C17.52 7.26, 17.92 7.13, 18.28 7.02 M18.28 7.02 C18.68 6.87, 19.09 6.71, 19.42 6.59 M18.28 7.02 C18.69 6.86, 19.11 6.71, 19.42 6.59 M19.42 6.59 C19.7 6.47, 19.99 6.34, 20.55 6.1 M19.42 6.59 C19.66 6.48, 19.91 6.38, 20.55 6.1 M20.55 6.1 C20.99 5.88, 21.43 5.66, 21.65 5.55 M20.55 6.1 C20.89 5.93, 21.23 5.76, 21.65 5.55 M21.65 5.55 C21.94 5.39, 22.23 5.23, 22.73 4.95 M21.65 5.55 C21.95 5.39, 22.25 5.22, 22.73 4.95 M22.73 4.95 C23.12 4.71, 23.5 4.47, 23.79 4.29 M22.73 4.95 C22.96 4.81, 23.19 4.66, 23.79 4.29 M23.79 4.29 C24.05 4.1, 24.31 3.92, 24.82 3.57 M23.79 4.29 C24.01 4.13, 24.23 3.98, 24.82 3.57 M24.82 3.57 C25.1 3.35, 25.38 3.13, 25.82 2.79 M24.82 3.57 C25.22 3.26, 25.62 2.95, 25.82 2.79 M25.82 2.79 C26.18 2.48, 26.54 2.18, 26.79 1.96 M25.82 2.79 C26.07 2.58, 26.32 2.36, 26.79 1.96 M26.79 1.96 C27.13 1.64, 27.46 1.32, 27.73 1.06 M26.79 1.96 C27.06 1.71, 27.32 1.46, 27.73 1.06 M27.73 1.06 C26.31 -0.36, 24.89 -1.78, 24.17 -2.5 M27.73 1.06 C26.71 0.05, 25.69 -0.97, 24.17 -2.5 M24.17 -2.5 C24.17 -2.5, 24.17 -2.5, 24.17 -2.5 M24.17 -2.5 C24.17 -2.5, 24.17 -2.5, 24.17 -2.5 M24.17 -2.5 C23.99 -2.32, 23.8 -2.15, 23.45 -1.82 M24.17 -2.5 C23.93 -2.27, 23.7 -2.05, 23.45 -1.82 M23.45 -1.82 C23.21 -1.61, 22.96 -1.4, 22.7 -1.18 M23.45 -1.82 C23.23 -1.63, 23.01 -1.45, 22.7 -1.18 M22.7 -1.18 C22.48 -1.01, 22.26 -0.84, 21.92 -0.58 M22.7 -1.18 C22.5 -1.02, 22.29 -0.87, 21.92 -0.58 M21.92 -0.58 C21.74 -0.46, 21.57 -0.34, 21.11 -0.02 M21.92 -0.58 C21.72 -0.44, 21.52 -0.3, 21.11 -0.02 M21.11 -0.02 C20.83 0.15, 20.55 0.32, 20.28 0.49 M21.11 -0.02 C20.86 0.13, 20.61 0.29, 20.28 0.49 M20.28 0.49 C20.04 0.62, 19.81 0.75, 19.42 0.97 M20.28 0.49 C19.97 0.66, 19.67 0.83, 19.42 0.97 M19.42 0.97 C19.15 1.1, 18.87 1.24, 18.55 1.39 M19.42 0.97 C19.13 1.11, 18.83 1.25, 18.55 1.39 M18.55 1.39 C18.28 1.51, 18.01 1.62, 17.65 1.78 M18.55 1.39 C18.34 1.48, 18.14 1.57, 17.65 1.78 M17.65 1.78 C17.43 1.86, 17.21 1.94, 16.73 2.12 M17.65 1.78 C17.3 1.91, 16.96 2.04, 16.73 2.12 M16.73 2.12 C16.5 2.19, 16.27 2.27, 15.8 2.41 M16.73 2.12 C16.4 2.23, 16.06 2.33, 15.8 2.41 M15.8 2.41 C15.47 2.5, 15.14 2.59, 14.86 2.66 M15.8 2.41 C15.52 2.49, 15.24 2.56, 14.86 2.66 M14.86 2.66 C14.49 2.74, 14.13 2.82, 13.9 2.86 M14.86 2.66 C14.59 2.72, 14.33 2.77, 13.9 2.86 M13.9 2.86 C13.69 2.9, 13.47 2.93, 12.93 3.02 M13.9 2.86 C13.59 2.91, 13.29 2.96, 12.93 3.02 M12.93 3.02 C12.63 3.05, 12.33 3.08, 11.95 3.12 M12.93 3.02 C12.57 3.06, 12.2 3.1, 11.95 3.12 M11.95 3.12 C11.7 3.14, 11.46 3.15, 10.96 3.18 M11.95 3.12 C11.66 3.14, 11.37 3.16, 10.96 3.18 M10.96 3.18 C10.63 3.18, 10.3 3.19, 9.97 3.19 M10.96 3.18 C10.71 3.18, 10.47 3.19, 9.97 3.19 M9.97 3.19 C9.97 3.19, 9.97 3.19, 9.97 3.19 M9.97 3.19 C9.97 3.19, 9.97 3.19, 9.97 3.19 M9.97 3.19 C9.97 3.19, 9.97 3.19, 9.97 3.19 M9.97 3.19 C9.97 3.19, 9.97 3.19, 9.97 3.19" stroke="#00000000" stroke-width="1" fill="none"></path></g></g><g stroke-linecap="round"><g transform="translate(964.1143935885696 568.8713835610281) rotate(0 19.941344206531824 1.422905021243622)" fill-rule="evenodd"><path d="M19.93 12.32 L19.93 12.32 L18.99 12.29 L18.07 12.17 L17.17 11.99 L16.3 11.73 L15.46 11.39 L14.65 11 L13.88 10.54 L13.15 10.01 L12.47 9.43 L11.84 8.8 L11.25 8.11 L10.73 7.38 L10.26 6.6 L9.86 5.77 L9.53 4.91 L9.27 4 L-4.54 4 L-4.54 12.47 L-15.6 1.41 L-4.54 -9.6 L-4.54 -1.14 L9.29 -1.14 L9.29 -1.14 L9.55 -2.05 L9.88 -2.91 L10.28 -3.74 L10.75 -4.52 L11.27 -5.26 L11.85 -5.94 L12.49 -6.58 L13.17 -7.16 L13.9 -7.68 L14.67 -8.14 L15.48 -8.53 L16.32 -8.86 L17.19 -9.12 L18.09 -9.31 L19.01 -9.42 L19.95 -9.45 L20.89 -9.42 L21.81 -9.31 L22.71 -9.12 L23.58 -8.86 L24.42 -8.53 L25.23 -8.13 L26 -7.67 L26.73 -7.15 L27.41 -6.57 L28.05 -5.94 L28.63 -5.25 L29.15 -4.51 L29.62 -3.73 L30.02 -2.91 L30.35 -2.04 L30.61 -1.14 L44.5 -1.14 L44.5 -9.64 L55.48 1.41 L44.43 12.49 L44.43 3.99 L30.6 3.99 L30.6 3.99 L30.33 4.89 L30 5.76 L29.6 6.59 L29.14 7.37 L28.61 8.11 L28.03 8.8 L27.39 9.43 L26.71 10.01 L25.98 10.53 L25.21 11 L24.4 11.39 L23.56 11.72 L22.69 11.99 L21.79 12.17 L20.87 12.29 L19.93 12.32 L19.93 12.32" stroke="none" stroke-width="0" fill="#669df6" fill-rule="evenodd"></path><path d="M19.93 12.32 C19.93 12.32, 19.93 12.32, 19.93 12.32 M19.93 12.32 C19.93 12.32, 19.93 12.32, 19.93 12.32 M19.93 12.32 C19.64 12.31, 19.35 12.3, 18.99 12.29 M19.93 12.32 C19.59 12.31, 19.24 12.29, 18.99 12.29 M18.99 12.29 C18.75 12.26, 18.5 12.23, 18.07 12.17 M18.99 12.29 C18.64 12.24, 18.29 12.2, 18.07 12.17 M18.07 12.17 C17.81 12.12, 17.55 12.06, 17.17 11.99 M18.07 12.17 C17.87 12.13, 17.67 12.09, 17.17 11.99 M17.17 11.99 C16.84 11.89, 16.51 11.79, 16.3 11.73 M17.17 11.99 C16.96 11.92, 16.75 11.86, 16.3 11.73 M16.3 11.73 C15.98 11.6, 15.65 11.47, 15.46 11.39 M16.3 11.73 C16.07 11.63, 15.83 11.54, 15.46 11.39 M15.46 11.39 C15.2 11.27, 14.94 11.14, 14.65 11 M15.46 11.39 C15.17 11.25, 14.88 11.11, 14.65 11 M14.65 11 C14.34 10.81, 14.04 10.63, 13.88 10.54 M14.65 11 C14.4 10.85, 14.15 10.7, 13.88 10.54 M13.88 10.54 C13.6 10.34, 13.32 10.14, 13.15 10.01 M13.88 10.54 C13.62 10.35, 13.35 10.16, 13.15 10.01 M13.15 10.01 C13.01 9.89, 12.87 9.77, 12.47 9.43 M13.15 10.01 C12.89 9.79, 12.63 9.57, 12.47 9.43 M12.47 9.43 C12.27 9.23, 12.07 9.03, 11.84 8.8 M12.47 9.43 C12.23 9.2, 11.99 8.96, 11.84 8.8 M11.84 8.8 C11.66 8.6, 11.49 8.39, 11.25 8.11 M11.84 8.8 C11.61 8.53, 11.38 8.26, 11.25 8.11 M11.25 8.11 C11.14 7.95, 11.03 7.79, 10.73 7.38 M11.25 8.11 C11.1 7.9, 10.95 7.69, 10.73 7.38 M10.73 7.38 C10.61 7.18, 10.49 6.98, 10.26 6.6 M10.73 7.38 C10.58 7.12, 10.43 6.87, 10.26 6.6 M10.26 6.6 C10.17 6.41, 10.08 6.22, 9.86 5.77 M10.26 6.6 C10.15 6.36, 10.04 6.13, 9.86 5.77 M9.86 5.77 C9.78 5.55, 9.69 5.33, 9.53 4.91 M9.86 5.77 C9.77 5.53, 9.68 5.29, 9.53 4.91 M9.53 4.91 C9.46 4.68, 9.4 4.46, 9.27 4 M9.53 4.91 C9.45 4.64, 9.38 4.38, 9.27 4 M9.27 4 C3.96 4, -1.35 4, -4.54 4 M9.27 4 C4.14 4, -0.98 4, -4.54 4 M-4.54 4 C-4.54 5.84, -4.54 7.67, -4.54 12.47 M-4.54 4 C-4.54 6.95, -4.54 9.9, -4.54 12.47 M-4.54 12.47 C-8.08 8.93, -11.61 5.4, -15.6 1.41 M-4.54 12.47 C-7.4 9.62, -10.25 6.76, -15.6 1.41 M-15.6 1.41 C-13.15 -1.03, -10.69 -3.47, -4.54 -9.6 M-15.6 1.41 C-12.82 -1.36, -10.03 -4.13, -4.54 -9.6 M-4.54 -9.6 C-4.54 -7.59, -4.54 -5.58, -4.54 -1.14 M-4.54 -9.6 C-4.54 -7.79, -4.54 -5.98, -4.54 -1.14 M-4.54 -1.14 C-1.72 -1.14, 1.11 -1.14, 9.29 -1.14 M-4.54 -1.14 C-0.69 -1.14, 3.17 -1.14, 9.29 -1.14 M9.29 -1.14 C9.29 -1.14, 9.29 -1.14, 9.29 -1.14 M9.29 -1.14 C9.29 -1.14, 9.29 -1.14, 9.29 -1.14 M9.29 -1.14 C9.35 -1.37, 9.42 -1.59, 9.55 -2.05 M9.29 -1.14 C9.36 -1.4, 9.44 -1.65, 9.55 -2.05 M9.55 -2.05 C9.62 -2.24, 9.7 -2.43, 9.88 -2.91 M9.55 -2.05 C9.67 -2.37, 9.8 -2.69, 9.88 -2.91 M9.88 -2.91 C10 -3.16, 10.12 -3.4, 10.28 -3.74 M9.88 -2.91 C10.04 -3.24, 10.2 -3.57, 10.28 -3.74 M10.28 -3.74 C10.39 -3.92, 10.5 -4.11, 10.75 -4.52 M10.28 -3.74 C10.45 -4.02, 10.62 -4.3, 10.75 -4.52 M10.75 -4.52 C10.87 -4.69, 10.99 -4.86, 11.27 -5.26 M10.75 -4.52 C10.92 -4.76, 11.09 -5, 11.27 -5.26 M11.27 -5.26 C11.46 -5.48, 11.65 -5.7, 11.85 -5.94 M11.27 -5.26 C11.5 -5.53, 11.73 -5.79, 11.85 -5.94 M11.85 -5.94 C12.09 -6.18, 12.33 -6.42, 12.49 -6.58 M11.85 -5.94 C12.01 -6.1, 12.17 -6.26, 12.49 -6.58 M12.49 -6.58 C12.66 -6.73, 12.84 -6.88, 13.17 -7.16 M12.49 -6.58 C12.74 -6.79, 12.99 -7.01, 13.17 -7.16 M13.17 -7.16 C13.33 -7.27, 13.49 -7.39, 13.9 -7.68 M13.17 -7.16 C13.41 -7.33, 13.66 -7.5, 13.9 -7.68 M13.9 -7.68 C14.13 -7.82, 14.37 -7.96, 14.67 -8.14 M13.9 -7.68 C14.08 -7.79, 14.26 -7.89, 14.67 -8.14 M14.67 -8.14 C14.91 -8.25, 15.14 -8.37, 15.48 -8.53 M14.67 -8.14 C14.84 -8.22, 15.01 -8.31, 15.48 -8.53 M15.48 -8.53 C15.75 -8.64, 16.03 -8.75, 16.32 -8.86 M15.48 -8.53 C15.69 -8.62, 15.9 -8.7, 16.32 -8.86 M16.32 -8.86 C16.55 -8.93, 16.78 -9, 17.19 -9.12 M16.32 -8.86 C16.58 -8.94, 16.84 -9.02, 17.19 -9.12 M17.19 -9.12 C17.46 -9.18, 17.72 -9.23, 18.09 -9.31 M17.19 -9.12 C17.46 -9.18, 17.73 -9.24, 18.09 -9.31 M18.09 -9.31 C18.34 -9.34, 18.59 -9.37, 19.01 -9.42 M18.09 -9.31 C18.35 -9.34, 18.62 -9.37, 19.01 -9.42 M19.01 -9.42 C19.35 -9.43, 19.7 -9.45, 19.95 -9.45 M19.01 -9.42 C19.2 -9.43, 19.4 -9.43, 19.95 -9.45 M19.95 -9.45 C20.31 -9.44, 20.67 -9.43, 20.89 -9.42 M19.95 -9.45 C20.17 -9.45, 20.39 -9.44, 20.89 -9.42 M20.89 -9.42 C21.08 -9.4, 21.27 -9.38, 21.81 -9.31 M20.89 -9.42 C21.08 -9.4, 21.27 -9.38, 21.81 -9.31 M21.81 -9.31 C22.1 -9.25, 22.39 -9.19, 22.71 -9.12 M21.81 -9.31 C22.07 -9.25, 22.34 -9.2, 22.71 -9.12 M22.71 -9.12 C22.95 -9.05, 23.18 -8.98, 23.58 -8.86 M22.71 -9.12 C22.94 -9.05, 23.17 -8.98, 23.58 -8.86 M23.58 -8.86 C23.89 -8.74, 24.19 -8.62, 24.42 -8.53 M23.58 -8.86 C23.9 -8.74, 24.22 -8.61, 24.42 -8.53 M24.42 -8.53 C24.68 -8.4, 24.94 -8.27, 25.23 -8.13 M24.42 -8.53 C24.74 -8.38, 25.05 -8.22, 25.23 -8.13 M25.23 -8.13 C25.4 -8.03, 25.57 -7.93, 26 -7.67 M25.23 -8.13 C25.45 -8, 25.67 -7.87, 26 -7.67 M26 -7.67 C26.23 -7.51, 26.46 -7.34, 26.73 -7.15 M26 -7.67 C26.21 -7.52, 26.43 -7.37, 26.73 -7.15 M26.73 -7.15 C26.98 -6.93, 27.24 -6.72, 27.41 -6.57 M26.73 -7.15 C26.99 -6.93, 27.26 -6.7, 27.41 -6.57 M27.41 -6.57 C27.61 -6.37, 27.8 -6.18, 28.05 -5.94 M27.41 -6.57 C27.62 -6.36, 27.82 -6.16, 28.05 -5.94 M28.05 -5.94 C28.24 -5.71, 28.43 -5.49, 28.63 -5.25 M28.05 -5.94 C28.24 -5.71, 28.44 -5.48, 28.63 -5.25 M28.63 -5.25 C28.81 -4.99, 29 -4.73, 29.15 -4.51 M28.63 -5.25 C28.82 -4.98, 29.01 -4.72, 29.15 -4.51 M29.15 -4.51 C29.32 -4.24, 29.48 -3.96, 29.62 -3.73 M29.15 -4.51 C29.32 -4.24, 29.48 -3.96, 29.62 -3.73 M29.62 -3.73 C29.78 -3.41, 29.93 -3.08, 30.02 -2.91 M29.62 -3.73 C29.74 -3.48, 29.86 -3.23, 30.02 -2.91 M30.02 -2.91 C30.14 -2.6, 30.26 -2.28, 30.35 -2.04 M30.02 -2.91 C30.13 -2.61, 30.25 -2.32, 30.35 -2.04 M30.35 -2.04 C30.45 -1.69, 30.56 -1.34, 30.61 -1.14 M30.35 -2.04 C30.45 -1.7, 30.55 -1.36, 30.61 -1.14 M30.61 -1.14 C33.62 -1.14, 36.62 -1.14, 44.5 -1.14 M30.61 -1.14 C35.94 -1.14, 41.26 -1.14, 44.5 -1.14 M44.5 -1.14 C44.5 -4.46, 44.5 -7.78, 44.5 -9.64 M44.5 -1.14 C44.5 -3.18, 44.5 -5.21, 44.5 -9.64 M44.5 -9.64 C47.02 -7.11, 49.54 -4.57, 55.48 1.41 M44.5 -9.64 C47.04 -7.08, 49.58 -4.53, 55.48 1.41 M55.48 1.41 C52.83 4.07, 50.18 6.73, 44.43 12.49 M55.48 1.41 C52.47 4.43, 49.46 7.44, 44.43 12.49 M44.43 12.49 C44.43 10.29, 44.43 8.09, 44.43 3.99 M44.43 12.49 C44.43 10.63, 44.43 8.78, 44.43 3.99 M44.43 3.99 C40.49 3.99, 36.56 3.99, 30.6 3.99 M44.43 3.99 C40.52 3.99, 36.62 3.99, 30.6 3.99 M30.6 3.99 C30.6 3.99, 30.6 3.99, 30.6 3.99 M30.6 3.99 C30.6 3.99, 30.6 3.99, 30.6 3.99 M30.6 3.99 C30.53 4.23, 30.46 4.47, 30.33 4.89 M30.6 3.99 C30.54 4.17, 30.49 4.35, 30.33 4.89 M30.33 4.89 C30.22 5.19, 30.1 5.49, 30 5.76 M30.33 4.89 C30.26 5.08, 30.19 5.27, 30 5.76 M30 5.76 C29.91 5.95, 29.81 6.15, 29.6 6.59 M30 5.76 C29.84 6.09, 29.68 6.42, 29.6 6.59 M29.6 6.59 C29.43 6.87, 29.26 7.15, 29.14 7.37 M29.6 6.59 C29.47 6.8, 29.34 7.02, 29.14 7.37 M29.14 7.37 C29.02 7.53, 28.9 7.7, 28.61 8.11 M29.14 7.37 C28.95 7.63, 28.77 7.89, 28.61 8.11 M28.61 8.11 C28.43 8.32, 28.24 8.54, 28.03 8.8 M28.61 8.11 C28.4 8.36, 28.18 8.62, 28.03 8.8 M28.03 8.8 C27.79 9.03, 27.55 9.27, 27.39 9.43 M28.03 8.8 C27.79 9.04, 27.55 9.28, 27.39 9.43 M27.39 9.43 C27.18 9.61, 26.97 9.79, 26.71 10.01 M27.39 9.43 C27.25 9.55, 27.11 9.67, 26.71 10.01 M26.71 10.01 C26.54 10.13, 26.38 10.25, 25.98 10.53 M26.71 10.01 C26.48 10.18, 26.25 10.35, 25.98 10.53 M25.98 10.53 C25.68 10.71, 25.38 10.89, 25.21 11 M25.98 10.53 C25.76 10.67, 25.54 10.8, 25.21 11 M25.21 11 C25.04 11.08, 24.86 11.17, 24.4 11.39 M25.21 11 C25.02 11.09, 24.82 11.19, 24.4 11.39 M24.4 11.39 C24.19 11.48, 23.98 11.56, 23.56 11.72 M24.4 11.39 C24.09 11.52, 23.78 11.64, 23.56 11.72 M23.56 11.72 C23.23 11.82, 22.9 11.92, 22.69 11.99 M23.56 11.72 C23.27 11.81, 22.97 11.9, 22.69 11.99 M22.69 11.99 C22.37 12.05, 22.06 12.12, 21.79 12.17 M22.69 11.99 C22.51 12.02, 22.32 12.06, 21.79 12.17 M21.79 12.17 C21.57 12.2, 21.34 12.23, 20.87 12.29 M21.79 12.17 C21.58 12.2, 21.36 12.23, 20.87 12.29 M20.87 12.29 C20.52 12.3, 20.16 12.31, 19.93 12.32 M20.87 12.29 C20.67 12.29, 20.47 12.3, 19.93 12.32 M19.93 12.32 C19.93 12.32, 19.93 12.32, 19.93 12.32 M19.93 12.32 C19.93 12.32, 19.93 12.32, 19.93 12.32 M19.93 12.32 C19.93 12.32, 19.93 12.32, 19.93 12.32 M19.93 12.32 C19.93 12.32, 19.93 12.32, 19.93 12.32" stroke="#00000000" stroke-width="1" fill="none"></path></g></g><g stroke-linecap="round"><g transform="translate(980.8359610239661 564.5619795057507) rotate(0 3.210456901126463 5.722987916734496)" fill-rule="evenodd"><path d="M3.21 0 L3.21 0 L2.63 0.03 L2.06 0.12 L1.51 0.26 L0.99 0.45 L0.49 0.69 L0.02 0.98 L-0.43 1.3 L-0.83 1.67 L-1.2 2.08 L-1.53 2.52 L-1.82 2.99 L-2.06 3.49 L-2.25 4.02 L-2.4 4.57 L-2.48 5.14 L-2.51 5.72 L-2.48 6.31 L-2.4 6.88 L-2.26 7.43 L-2.06 7.95 L-1.82 8.45 L-1.54 8.93 L-1.21 9.37 L-0.84 9.77 L-0.43 10.14 L0.01 10.47 L0.48 10.76 L0.98 11 L1.51 11.19 L2.05 11.33 L2.62 11.42 L3.21 11.45 L3.8 11.42 L4.37 11.33 L4.92 11.19 L5.44 11 L5.94 10.76 L6.41 10.47 L6.85 10.14 L7.26 9.77 L7.63 9.37 L7.96 8.93 L8.24 8.45 L8.48 7.95 L8.68 7.43 L8.82 6.88 L8.9 6.31 L8.93 5.72 L8.9 5.14 L8.82 4.57 L8.68 4.02 L8.48 3.49 L8.24 2.99 L7.96 2.52 L7.63 2.08 L7.26 1.67 L6.85 1.3 L6.41 0.98 L5.94 0.69 L5.44 0.45 L4.92 0.26 L4.37 0.12 L3.8 0.03 L3.21 0 L3.21 0" stroke="none" stroke-width="0" fill="#669df6" fill-rule="evenodd"></path><path d="M3.21 0 C3.21 0, 3.21 0, 3.21 0 M3.21 0 C3.21 0, 3.21 0, 3.21 0 M3.21 0 C3.07 0.01, 2.93 0.01, 2.63 0.03 M3.21 0 C3 0.01, 2.79 0.02, 2.63 0.03 M2.63 0.03 C2.49 0.05, 2.35 0.07, 2.06 0.12 M2.63 0.03 C2.48 0.05, 2.33 0.08, 2.06 0.12 M2.06 0.12 C1.87 0.17, 1.68 0.21, 1.51 0.26 M2.06 0.12 C1.86 0.17, 1.66 0.22, 1.51 0.26 M1.51 0.26 C1.31 0.33, 1.11 0.4, 0.99 0.45 M1.51 0.26 C1.37 0.31, 1.23 0.36, 0.99 0.45 M0.99 0.45 C0.87 0.5, 0.76 0.56, 0.49 0.69 M0.99 0.45 C0.84 0.52, 0.68 0.59, 0.49 0.69 M0.49 0.69 C0.38 0.75, 0.28 0.81, 0.02 0.98 M0.49 0.69 C0.33 0.78, 0.18 0.87, 0.02 0.98 M0.02 0.98 C-0.11 1.07, -0.23 1.16, -0.43 1.3 M0.02 0.98 C-0.11 1.07, -0.24 1.16, -0.43 1.3 M-0.43 1.3 C-0.56 1.42, -0.69 1.54, -0.83 1.67 M-0.43 1.3 C-0.52 1.39, -0.61 1.47, -0.83 1.67 M-0.83 1.67 C-0.97 1.83, -1.12 1.98, -1.2 2.08 M-0.83 1.67 C-0.92 1.77, -1.01 1.87, -1.2 2.08 M-1.2 2.08 C-1.27 2.17, -1.34 2.26, -1.53 2.52 M-1.2 2.08 C-1.3 2.21, -1.4 2.34, -1.53 2.52 M-1.53 2.52 C-1.65 2.71, -1.76 2.9, -1.82 2.99 M-1.53 2.52 C-1.64 2.7, -1.76 2.89, -1.82 2.99 M-1.82 2.99 C-1.87 3.09, -1.92 3.2, -2.06 3.49 M-1.82 2.99 C-1.9 3.15, -1.98 3.32, -2.06 3.49 M-2.06 3.49 C-2.11 3.63, -2.16 3.77, -2.25 4.02 M-2.06 3.49 C-2.13 3.67, -2.19 3.85, -2.25 4.02 M-2.25 4.02 C-2.31 4.22, -2.36 4.43, -2.4 4.57 M-2.25 4.02 C-2.29 4.15, -2.32 4.29, -2.4 4.57 M-2.4 4.57 C-2.42 4.72, -2.44 4.88, -2.48 5.14 M-2.4 4.57 C-2.42 4.7, -2.44 4.83, -2.48 5.14 M-2.48 5.14 C-2.49 5.25, -2.49 5.37, -2.51 5.72 M-2.48 5.14 C-2.49 5.27, -2.5 5.41, -2.51 5.72 M-2.51 5.72 C-2.51 5.86, -2.5 5.99, -2.48 6.31 M-2.51 5.72 C-2.5 5.93, -2.49 6.15, -2.48 6.31 M-2.48 6.31 C-2.46 6.48, -2.43 6.65, -2.4 6.88 M-2.48 6.31 C-2.46 6.43, -2.45 6.56, -2.4 6.88 M-2.4 6.88 C-2.36 7.04, -2.31 7.2, -2.26 7.43 M-2.4 6.88 C-2.35 7.07, -2.3 7.26, -2.26 7.43 M-2.26 7.43 C-2.2 7.59, -2.14 7.74, -2.06 7.95 M-2.26 7.43 C-2.18 7.63, -2.11 7.82, -2.06 7.95 M-2.06 7.95 C-1.99 8.1, -1.92 8.25, -1.82 8.45 M-2.06 7.95 C-2.01 8.06, -1.96 8.17, -1.82 8.45 M-1.82 8.45 C-1.72 8.63, -1.61 8.81, -1.54 8.93 M-1.82 8.45 C-1.76 8.56, -1.69 8.67, -1.54 8.93 M-1.54 8.93 C-1.45 9.04, -1.36 9.16, -1.21 9.37 M-1.54 8.93 C-1.45 9.04, -1.37 9.15, -1.21 9.37 M-1.21 9.37 C-1.09 9.5, -0.97 9.63, -0.84 9.77 M-1.21 9.37 C-1.08 9.51, -0.95 9.65, -0.84 9.77 M-0.84 9.77 C-0.73 9.88, -0.61 9.98, -0.43 10.14 M-0.84 9.77 C-0.68 9.92, -0.52 10.07, -0.43 10.14 M-0.43 10.14 C-0.32 10.22, -0.21 10.31, 0.01 10.47 M-0.43 10.14 C-0.32 10.23, -0.2 10.32, 0.01 10.47 M0.01 10.47 C0.11 10.53, 0.22 10.6, 0.48 10.76 M0.01 10.47 C0.12 10.54, 0.23 10.61, 0.48 10.76 M0.48 10.76 C0.63 10.83, 0.79 10.91, 0.98 11 M0.48 10.76 C0.65 10.84, 0.82 10.92, 0.98 11 M0.98 11 C1.1 11.04, 1.23 11.09, 1.51 11.19 M0.98 11 C1.18 11.07, 1.39 11.15, 1.51 11.19 M1.51 11.19 C1.71 11.24, 1.91 11.29, 2.05 11.33 M1.51 11.19 C1.67 11.23, 1.83 11.27, 2.05 11.33 M2.05 11.33 C2.19 11.35, 2.32 11.37, 2.62 11.42 M2.05 11.33 C2.25 11.36, 2.45 11.39, 2.62 11.42 M2.62 11.42 C2.82 11.43, 3.01 11.44, 3.21 11.45 M2.62 11.42 C2.8 11.43, 2.98 11.43, 3.21 11.45 M3.21 11.45 C3.34 11.44, 3.48 11.43, 3.8 11.42 M3.21 11.45 C3.34 11.44, 3.48 11.43, 3.8 11.42 M3.8 11.42 C3.92 11.4, 4.04 11.38, 4.37 11.33 M3.8 11.42 C3.95 11.39, 4.1 11.37, 4.37 11.33 M4.37 11.33 C4.58 11.28, 4.79 11.22, 4.92 11.19 M4.37 11.33 C4.49 11.3, 4.62 11.27, 4.92 11.19 M4.92 11.19 C5.06 11.14, 5.21 11.08, 5.44 11 M4.92 11.19 C5.1 11.12, 5.29 11.05, 5.44 11 M5.44 11 C5.62 10.91, 5.81 10.82, 5.94 10.76 M5.44 11 C5.61 10.91, 5.79 10.83, 5.94 10.76 M5.94 10.76 C6.08 10.67, 6.22 10.59, 6.41 10.47 M5.94 10.76 C6.08 10.68, 6.21 10.59, 6.41 10.47 M6.41 10.47 C6.59 10.34, 6.76 10.21, 6.85 10.14 M6.41 10.47 C6.54 10.38, 6.66 10.28, 6.85 10.14 M6.85 10.14 C6.96 10.04, 7.07 9.94, 7.26 9.77 M6.85 10.14 C6.94 10.06, 7.03 9.99, 7.26 9.77 M7.26 9.77 C7.4 9.62, 7.53 9.47, 7.63 9.37 M7.26 9.77 C7.38 9.64, 7.51 9.5, 7.63 9.37 M7.63 9.37 C7.74 9.22, 7.85 9.07, 7.96 8.93 M7.63 9.37 C7.71 9.26, 7.79 9.15, 7.96 8.93 M7.96 8.93 C8.07 8.75, 8.18 8.57, 8.24 8.45 M7.96 8.93 C8.04 8.78, 8.13 8.64, 8.24 8.45 M8.24 8.45 C8.31 8.33, 8.37 8.2, 8.48 7.95 M8.24 8.45 C8.33 8.28, 8.41 8.11, 8.48 7.95 M8.48 7.95 C8.56 7.75, 8.63 7.55, 8.68 7.43 M8.48 7.95 C8.56 7.76, 8.63 7.56, 8.68 7.43 M8.68 7.43 C8.72 7.26, 8.76 7.1, 8.82 6.88 M8.68 7.43 C8.71 7.31, 8.74 7.19, 8.82 6.88 M8.82 6.88 C8.85 6.7, 8.87 6.51, 8.9 6.31 M8.82 6.88 C8.84 6.74, 8.86 6.61, 8.9 6.31 M8.9 6.31 C8.92 6.08, 8.93 5.85, 8.93 5.72 M8.9 6.31 C8.91 6.18, 8.92 6.06, 8.93 5.72 M8.93 5.72 C8.92 5.49, 8.91 5.26, 8.9 5.14 M8.93 5.72 C8.92 5.49, 8.91 5.26, 8.9 5.14 M8.9 5.14 C8.87 4.93, 8.84 4.72, 8.82 4.57 M8.9 5.14 C8.88 5, 8.86 4.86, 8.82 4.57 M8.82 4.57 C8.76 4.35, 8.71 4.13, 8.68 4.02 M8.82 4.57 C8.78 4.44, 8.75 4.31, 8.68 4.02 M8.68 4.02 C8.62 3.87, 8.57 3.72, 8.48 3.49 M8.68 4.02 C8.63 3.89, 8.58 3.76, 8.48 3.49 M8.48 3.49 C8.39 3.29, 8.29 3.1, 8.24 2.99 M8.48 3.49 C8.4 3.32, 8.32 3.15, 8.24 2.99 M8.24 2.99 C8.15 2.83, 8.05 2.68, 7.96 2.52 M8.24 2.99 C8.15 2.84, 8.06 2.68, 7.96 2.52 M7.96 2.52 C7.88 2.42, 7.81 2.32, 7.63 2.08 M7.96 2.52 C7.83 2.34, 7.7 2.17, 7.63 2.08 M7.63 2.08 C7.5 1.94, 7.38 1.8, 7.26 1.67 M7.63 2.08 C7.54 1.98, 7.45 1.88, 7.26 1.67 M7.26 1.67 C7.18 1.6, 7.09 1.52, 6.85 1.3 M7.26 1.67 C7.14 1.56, 7.02 1.45, 6.85 1.3 M6.85 1.3 C6.75 1.22, 6.64 1.15, 6.41 0.98 M6.85 1.3 C6.73 1.21, 6.61 1.12, 6.41 0.98 M6.41 0.98 C6.3 0.91, 6.19 0.84, 5.94 0.69 M6.41 0.98 C6.31 0.91, 6.21 0.85, 5.94 0.69 M5.94 0.69 C5.84 0.64, 5.73 0.59, 5.44 0.45 M5.94 0.69 C5.75 0.6, 5.56 0.51, 5.44 0.45 M5.44 0.45 C5.29 0.39, 5.14 0.34, 4.92 0.26 M5.44 0.45 C5.27 0.38, 5.09 0.32, 4.92 0.26 M4.92 0.26 C4.73 0.21, 4.54 0.16, 4.37 0.12 M4.92 0.26 C4.78 0.22, 4.64 0.19, 4.37 0.12 M4.37 0.12 C4.2 0.09, 4.03 0.06, 3.8 0.03 M4.37 0.12 C4.17 0.09, 3.98 0.06, 3.8 0.03 M3.8 0.03 C3.59 0.02, 3.38 0.01, 3.21 0 M3.8 0.03 C3.67 0.02, 3.54 0.02, 3.21 0 M3.21 0 C3.21 0, 3.21 0, 3.21 0 M3.21 0 C3.21 0, 3.21 0, 3.21 0 M3.21 0 C3.21 0, 3.21 0, 3.21 0 M3.21 0 C3.21 0, 3.21 0, 3.21 0" stroke="#00000000" stroke-width="1" fill="none"></path></g></g><g stroke-linecap="round"><g transform="translate(980.8359610239661 564.5619795057507) rotate(0 3.210456901126463 5.722987916734496)" fill-rule="evenodd"><path d="M3.21 0 L3.21 0 L2.63 0.03 L2.06 0.12 L1.51 0.26 L0.99 0.45 L0.49 0.69 L0.02 0.98 L-0.43 1.3 L-0.83 1.67 L-1.2 2.08 L-1.53 2.52 L-1.82 2.99 L-2.06 3.49 L-2.25 4.02 L-2.4 4.57 L-2.48 5.14 L-2.51 5.72 L-2.48 6.31 L-2.4 6.88 L-2.26 7.43 L-2.06 7.95 L-1.82 8.45 L-1.54 8.93 L-1.21 9.37 L-0.84 9.77 L-0.43 10.14 L0.01 10.47 L0.48 10.76 L0.98 11 L1.51 11.19 L2.05 11.33 L2.62 11.42 L3.21 11.45 L3.8 11.42 L4.37 11.33 L4.92 11.19 L5.44 11 L5.94 10.76 L6.41 10.47 L6.85 10.14 L7.26 9.77 L7.63 9.37 L7.96 8.93 L8.24 8.45 L8.48 7.95 L8.68 7.43 L8.82 6.88 L8.9 6.31 L8.93 5.72 L8.9 5.14 L8.82 4.57 L8.68 4.02 L8.48 3.49 L8.24 2.99 L7.96 2.52 L7.63 2.08 L7.26 1.67 L6.85 1.3 L6.41 0.98 L5.94 0.69 L5.44 0.45 L4.92 0.26 L4.37 0.12 L3.8 0.03 L3.21 0 L3.21 0" stroke="none" stroke-width="0" fill="#fff" fill-rule="evenodd"></path><path d="M3.21 0 C3.21 0, 3.21 0, 3.21 0 M3.21 0 C3.21 0, 3.21 0, 3.21 0 M3.21 0 C2.98 0.01, 2.76 0.02, 2.63 0.03 M3.21 0 C3.04 0.01, 2.86 0.02, 2.63 0.03 M2.63 0.03 C2.48 0.05, 2.33 0.07, 2.06 0.12 M2.63 0.03 C2.47 0.05, 2.31 0.08, 2.06 0.12 M2.06 0.12 C1.86 0.17, 1.66 0.22, 1.51 0.26 M2.06 0.12 C1.92 0.15, 1.79 0.19, 1.51 0.26 M1.51 0.26 C1.31 0.33, 1.11 0.41, 0.99 0.45 M1.51 0.26 C1.38 0.31, 1.25 0.35, 0.99 0.45 M0.99 0.45 C0.87 0.51, 0.75 0.56, 0.49 0.69 M0.99 0.45 C0.81 0.53, 0.63 0.62, 0.49 0.69 M0.49 0.69 C0.34 0.78, 0.19 0.87, 0.02 0.98 M0.49 0.69 C0.36 0.77, 0.24 0.84, 0.02 0.98 M0.02 0.98 C-0.08 1.05, -0.18 1.12, -0.43 1.3 M0.02 0.98 C-0.1 1.06, -0.21 1.15, -0.43 1.3 M-0.43 1.3 C-0.51 1.38, -0.59 1.45, -0.83 1.67 M-0.43 1.3 C-0.58 1.45, -0.74 1.59, -0.83 1.67 M-0.83 1.67 C-0.94 1.79, -1.04 1.9, -1.2 2.08 M-0.83 1.67 C-0.97 1.83, -1.12 1.98, -1.2 2.08 M-1.2 2.08 C-1.3 2.21, -1.4 2.35, -1.53 2.52 M-1.2 2.08 C-1.3 2.21, -1.4 2.35, -1.53 2.52 M-1.53 2.52 C-1.6 2.64, -1.68 2.76, -1.82 2.99 M-1.53 2.52 C-1.6 2.62, -1.66 2.73, -1.82 2.99 M-1.82 2.99 C-1.89 3.13, -1.96 3.28, -2.06 3.49 M-1.82 2.99 C-1.88 3.12, -1.94 3.24, -2.06 3.49 M-2.06 3.49 C-2.12 3.64, -2.17 3.8, -2.25 4.02 M-2.06 3.49 C-2.11 3.62, -2.16 3.75, -2.25 4.02 M-2.25 4.02 C-2.3 4.18, -2.34 4.34, -2.4 4.57 M-2.25 4.02 C-2.29 4.16, -2.33 4.31, -2.4 4.57 M-2.4 4.57 C-2.41 4.69, -2.43 4.81, -2.48 5.14 M-2.4 4.57 C-2.41 4.69, -2.43 4.81, -2.48 5.14 M-2.48 5.14 C-2.49 5.3, -2.5 5.47, -2.51 5.72 M-2.48 5.14 C-2.49 5.33, -2.5 5.52, -2.51 5.72 M-2.51 5.72 C-2.5 5.95, -2.49 6.19, -2.48 6.31 M-2.51 5.72 C-2.51 5.86, -2.5 6, -2.48 6.31 M-2.48 6.31 C-2.46 6.49, -2.43 6.67, -2.4 6.88 M-2.48 6.31 C-2.46 6.44, -2.44 6.57, -2.4 6.88 M-2.4 6.88 C-2.36 7.01, -2.33 7.14, -2.26 7.43 M-2.4 6.88 C-2.35 7.06, -2.3 7.24, -2.26 7.43 M-2.26 7.43 C-2.21 7.55, -2.17 7.67, -2.06 7.95 M-2.26 7.43 C-2.19 7.6, -2.13 7.76, -2.06 7.95 M-2.06 7.95 C-1.99 8.11, -1.91 8.27, -1.82 8.45 M-2.06 7.95 C-2 8.09, -1.94 8.22, -1.82 8.45 M-1.82 8.45 C-1.72 8.63, -1.61 8.81, -1.54 8.93 M-1.82 8.45 C-1.73 8.61, -1.63 8.77, -1.54 8.93 M-1.54 8.93 C-1.46 9.03, -1.38 9.13, -1.21 9.37 M-1.54 8.93 C-1.44 9.06, -1.34 9.19, -1.21 9.37 M-1.21 9.37 C-1.09 9.49, -0.98 9.62, -0.84 9.77 M-1.21 9.37 C-1.08 9.51, -0.94 9.66, -0.84 9.77 M-0.84 9.77 C-0.7 9.9, -0.55 10.03, -0.43 10.14 M-0.84 9.77 C-0.73 9.87, -0.63 9.97, -0.43 10.14 M-0.43 10.14 C-0.31 10.23, -0.2 10.32, 0.01 10.47 M-0.43 10.14 C-0.3 10.24, -0.16 10.34, 0.01 10.47 M0.01 10.47 C0.14 10.55, 0.26 10.63, 0.48 10.76 M0.01 10.47 C0.13 10.55, 0.26 10.62, 0.48 10.76 M0.48 10.76 C0.63 10.83, 0.78 10.9, 0.98 11 M0.48 10.76 C0.58 10.81, 0.68 10.86, 0.98 11 M0.98 11 C1.17 11.07, 1.36 11.13, 1.51 11.19 M0.98 11 C1.19 11.07, 1.39 11.15, 1.51 11.19 M1.51 11.19 C1.7 11.24, 1.89 11.29, 2.05 11.33 M1.51 11.19 C1.68 11.23, 1.85 11.28, 2.05 11.33 M2.05 11.33 C2.17 11.35, 2.29 11.37, 2.62 11.42 M2.05 11.33 C2.17 11.35, 2.29 11.37, 2.62 11.42 M2.62 11.42 C2.83 11.43, 3.04 11.44, 3.21 11.45 M2.62 11.42 C2.76 11.42, 2.9 11.43, 3.21 11.45 M3.21 11.45 C3.43 11.43, 3.66 11.42, 3.8 11.42 M3.21 11.45 C3.35 11.44, 3.5 11.43, 3.8 11.42 M3.8 11.42 C4 11.39, 4.19 11.36, 4.37 11.33 M3.8 11.42 C4.01 11.38, 4.21 11.35, 4.37 11.33 M4.37 11.33 C4.52 11.29, 4.67 11.25, 4.92 11.19 M4.37 11.33 C4.54 11.28, 4.72 11.24, 4.92 11.19 M4.92 11.19 C5.12 11.12, 5.32 11.04, 5.44 11 M4.92 11.19 C5.05 11.14, 5.18 11.09, 5.44 11 M5.44 11 C5.56 10.94, 5.68 10.88, 5.94 10.76 M5.44 11 C5.56 10.94, 5.67 10.89, 5.94 10.76 M5.94 10.76 C6.12 10.65, 6.3 10.54, 6.41 10.47 M5.94 10.76 C6.07 10.68, 6.19 10.6, 6.41 10.47 M6.41 10.47 C6.53 10.38, 6.65 10.29, 6.85 10.14 M6.41 10.47 C6.52 10.39, 6.62 10.32, 6.85 10.14 M6.85 10.14 C6.97 10.03, 7.09 9.93, 7.26 9.77 M6.85 10.14 C6.97 10.03, 7.09 9.92, 7.26 9.77 M7.26 9.77 C7.38 9.64, 7.49 9.52, 7.63 9.37 M7.26 9.77 C7.4 9.62, 7.55 9.46, 7.63 9.37 M7.63 9.37 C7.74 9.22, 7.85 9.07, 7.96 8.93 M7.63 9.37 C7.72 9.25, 7.8 9.14, 7.96 8.93 M7.96 8.93 C8.07 8.75, 8.17 8.57, 8.24 8.45 M7.96 8.93 C8.07 8.74, 8.19 8.55, 8.24 8.45 M8.24 8.45 C8.33 8.28, 8.41 8.11, 8.48 7.95 M8.24 8.45 C8.3 8.35, 8.35 8.24, 8.48 7.95 M8.48 7.95 C8.56 7.75, 8.63 7.55, 8.68 7.43 M8.48 7.95 C8.56 7.76, 8.63 7.56, 8.68 7.43 M8.68 7.43 C8.71 7.28, 8.75 7.14, 8.82 6.88 M8.68 7.43 C8.71 7.31, 8.74 7.19, 8.82 6.88 M8.82 6.88 C8.85 6.68, 8.88 6.49, 8.9 6.31 M8.82 6.88 C8.84 6.72, 8.87 6.56, 8.9 6.31 M8.9 6.31 C8.91 6.19, 8.92 6.07, 8.93 5.72 M8.9 6.31 C8.91 6.14, 8.92 5.97, 8.93 5.72 M8.93 5.72 C8.92 5.5, 8.91 5.27, 8.9 5.14 M8.93 5.72 C8.93 5.56, 8.92 5.4, 8.9 5.14 M8.9 5.14 C8.89 5.02, 8.87 4.9, 8.82 4.57 M8.9 5.14 C8.88 5, 8.86 4.87, 8.82 4.57 M8.82 4.57 C8.77 4.4, 8.73 4.23, 8.68 4.02 M8.82 4.57 C8.76 4.35, 8.71 4.14, 8.68 4.02 M8.68 4.02 C8.62 3.87, 8.57 3.72, 8.48 3.49 M8.68 4.02 C8.63 3.9, 8.59 3.78, 8.48 3.49 M8.48 3.49 C8.43 3.38, 8.37 3.26, 8.24 2.99 M8.48 3.49 C8.43 3.38, 8.38 3.28, 8.24 2.99 M8.24 2.99 C8.14 2.82, 8.03 2.64, 7.96 2.52 M8.24 2.99 C8.18 2.88, 8.11 2.78, 7.96 2.52 M7.96 2.52 C7.84 2.36, 7.72 2.2, 7.63 2.08 M7.96 2.52 C7.88 2.41, 7.8 2.31, 7.63 2.08 M7.63 2.08 C7.49 1.93, 7.35 1.77, 7.26 1.67 M7.63 2.08 C7.5 1.93, 7.37 1.79, 7.26 1.67 M7.26 1.67 C7.17 1.59, 7.08 1.51, 6.85 1.3 M7.26 1.67 C7.13 1.55, 7 1.44, 6.85 1.3 M6.85 1.3 C6.71 1.19, 6.56 1.08, 6.41 0.98 M6.85 1.3 C6.71 1.19, 6.56 1.08, 6.41 0.98 M6.41 0.98 C6.23 0.86, 6.05 0.75, 5.94 0.69 M6.41 0.98 C6.23 0.86, 6.05 0.75, 5.94 0.69 M5.94 0.69 C5.81 0.63, 5.68 0.56, 5.44 0.45 M5.94 0.69 C5.82 0.63, 5.71 0.58, 5.44 0.45 M5.44 0.45 C5.33 0.41, 5.22 0.37, 4.92 0.26 M5.44 0.45 C5.26 0.38, 5.07 0.31, 4.92 0.26 M4.92 0.26 C4.76 0.22, 4.61 0.18, 4.37 0.12 M4.92 0.26 C4.73 0.21, 4.55 0.16, 4.37 0.12 M4.37 0.12 C4.22 0.09, 4.08 0.07, 3.8 0.03 M4.37 0.12 C4.25 0.1, 4.13 0.08, 3.8 0.03 M3.8 0.03 C3.63 0.02, 3.46 0.01, 3.21 0 M3.8 0.03 C3.65 0.02, 3.51 0.01, 3.21 0 M3.21 0 C3.21 0, 3.21 0, 3.21 0 M3.21 0 C3.21 0, 3.21 0, 3.21 0 M3.21 0 C3.21 0, 3.21 0, 3.21 0 M3.21 0 C3.21 0, 3.21 0, 3.21 0" stroke="#00000000" stroke-width="1" fill="none"></path></g></g><g stroke-linecap="round"><g transform="translate(770 570) rotate(0 69.5 0)"><path d="M0 0 C23.17 0, 115.83 0, 139 0 M0 0 C23.17 0, 115.83 0, 139 0" stroke="#364fc7" stroke-width="2" fill="none"></path></g><g transform="translate(770 570) rotate(0 69.5 0)"><path d="M139 0 L125.41 6.34 L125.41 -6.34 L139 0" stroke="none" stroke-width="0" fill="#364fc7" fill-rule="evenodd"></path><path d="M139 0 C135.03 1.85, 131.07 3.7, 125.41 6.34 M139 0 C134.78 1.97, 130.57 3.93, 125.41 6.34 M125.41 6.34 C125.41 3.58, 125.41 0.83, 125.41 -6.34 M125.41 6.34 C125.41 3.29, 125.41 0.25, 125.41 -6.34 M125.41 -6.34 C130.8 -3.82, 136.19 -1.31, 139 0 M125.41 -6.34 C130.45 -3.99, 135.5 -1.63, 139 0 M139 0 C139 0, 139 0, 139 0 M139 0 C139 0, 139 0, 139 0" stroke="#364fc7" stroke-width="2" fill="none"></path></g></g><g stroke-linecap="round" transform="translate(73.5 530) rotate(0 80 36)"><path d="M18 0 L142 0 L149.88 1.13 L155.5 4.5 L157.47 7.03 L159.72 13.78 L160 54 L158.88 61.88 L157.47 64.97 L152.97 69.47 L149.88 70.88 L142 72 L18 72 L10.13 70.88 L4.5 67.5 L2.53 64.97 L0.28 58.22 L0.28 13.78 L1.13 10.13 L4.5 4.5 L10.13 1.13 L18 0" stroke="none" stroke-width="0" fill="#DEDEDE"></path><path d="M18 0 M18 0 C67.04 0, 116.08 0, 142 0 M18 0 C46.42 0, 74.84 0, 142 0 M142 0 C154 0, 160 6, 160 18 M142 0 C154 0, 160 6, 160 18 M160 18 C160 25.74, 160 33.48, 160 54 M160 18 C160 30.13, 160 42.27, 160 54 M160 54 C160 66, 154 72, 142 72 M160 54 C160 66, 154 72, 142 72 M142 72 C101.07 72, 60.15 72, 18 72 M142 72 C111.01 72, 80.02 72, 18 72 M18 72 C6 72, 0 66, 0 54 M18 72 C6 72, 0 66, 0 54 M0 54 C0 46.38, 0 38.76, 0 18 M0 54 C0 43.09, 0 32.18, 0 18 M0 18 C0 6, 6 0, 18 0 M0 18 C0 6, 6 0, 18 0" stroke="#000" stroke-width="2" fill="none"></path></g><g transform="translate(150 550) rotate(0 29.5 14.5)"><text x="0" y="22" font-family="Helvetica, Segoe UI Emoji" font-size="28px" fill="#000000" text-anchor="start" style="white-space: pre;" direction="ltr">User</text></g><g stroke-linecap="round"><g transform="translate(70 550) rotate(0 16 16)" fill-rule="evenodd"><path d="M0 0 L32 0 L32 32 L0 32 L0 0" stroke="none" stroke-width="0" fill="#00000000" fill-rule="evenodd"></path><path d="M0 0 C10.64 0, 21.28 0, 32 0 M0 0 C11.4 0, 22.79 0, 32 0 M32 0 C32 8.46, 32 16.92, 32 32 M32 0 C32 9.79, 32 19.58, 32 32 M32 32 C19.66 32, 7.32 32, 0 32 M32 32 C21.43 32, 10.86 32, 0 32 M0 32 C0 21.8, 0 11.6, 0 0 M0 32 C0 21.57, 0 11.13, 0 0 M0 0 C0 0, 0 0, 0 0 M0 0 C0 0, 0 0, 0 0" stroke="#00000000" stroke-width="1" fill="none"></path></g></g><g stroke-linecap="round"><g transform="translate(112 566) rotate(0 -0.0066661834716796875 -3.3333330154418945)" fill-rule="evenodd"><path d="M0 0 L0 0 L1.3 -0.26 L2.35 -0.98 L3.06 -2.04 L3.32 -3.33 L3.06 -4.63 L2.35 -5.69 L1.3 -6.4 L0 -6.67 L-1.3 -6.4 L-2.36 -5.69 L-3.07 -4.63 L-3.33 -3.33 L-3.07 -2.04 L-2.36 -0.98 L-1.3 -0.26 L0 0 L0 0" stroke="none" stroke-width="0" fill="#000" fill-rule="evenodd"></path><path d="M0 0 C0 0, 0 0, 0 0 M0 0 C0 0, 0 0, 0 0 M0 0 C0.36 -0.07, 0.71 -0.14, 1.3 -0.26 M0 0 C0.51 -0.1, 1.03 -0.21, 1.3 -0.26 M1.3 -0.26 C1.69 -0.53, 2.09 -0.8, 2.35 -0.98 M1.3 -0.26 C1.62 -0.48, 1.94 -0.7, 2.35 -0.98 M2.35 -0.98 C2.61 -1.37, 2.88 -1.76, 3.06 -2.04 M2.35 -0.98 C2.53 -1.25, 2.71 -1.52, 3.06 -2.04 M3.06 -2.04 C3.16 -2.52, 3.25 -3, 3.32 -3.33 M3.06 -2.04 C3.12 -2.34, 3.18 -2.65, 3.32 -3.33 M3.32 -3.33 C3.22 -3.85, 3.11 -4.36, 3.06 -4.63 M3.32 -3.33 C3.24 -3.74, 3.16 -4.16, 3.06 -4.63 M3.06 -4.63 C2.78 -5.04, 2.51 -5.45, 2.35 -5.69 M3.06 -4.63 C2.88 -4.9, 2.69 -5.18, 2.35 -5.69 M2.35 -5.69 C1.97 -5.94, 1.6 -6.2, 1.3 -6.4 M2.35 -5.69 C2.12 -5.85, 1.89 -6, 1.3 -6.4 M1.3 -6.4 C1.02 -6.46, 0.74 -6.52, 0 -6.67 M1.3 -6.4 C0.8 -6.51, 0.3 -6.61, 0 -6.67 M0 -6.67 C-0.4 -6.59, -0.8 -6.51, -1.3 -6.4 M0 -6.67 C-0.35 -6.6, -0.7 -6.52, -1.3 -6.4 M-1.3 -6.4 C-1.56 -6.23, -1.82 -6.05, -2.36 -5.69 M-1.3 -6.4 C-1.67 -6.15, -2.04 -5.9, -2.36 -5.69 M-2.36 -5.69 C-2.53 -5.43, -2.71 -5.16, -3.07 -4.63 M-2.36 -5.69 C-2.62 -5.31, -2.88 -4.92, -3.07 -4.63 M-3.07 -4.63 C-3.17 -4.15, -3.27 -3.67, -3.33 -3.33 M-3.07 -4.63 C-3.16 -4.21, -3.24 -3.79, -3.33 -3.33 M-3.33 -3.33 C-3.27 -3.03, -3.21 -2.72, -3.07 -2.04 M-3.33 -3.33 C-3.27 -3, -3.2 -2.66, -3.07 -2.04 M-3.07 -2.04 C-2.87 -1.74, -2.68 -1.45, -2.36 -0.98 M-3.07 -2.04 C-2.79 -1.62, -2.51 -1.2, -2.36 -0.98 M-2.36 -0.98 C-2.08 -0.79, -1.8 -0.6, -1.3 -0.26 M-2.36 -0.98 C-2.04 -0.76, -1.72 -0.55, -1.3 -0.26 M-1.3 -0.26 C-0.85 -0.17, -0.39 -0.08, 0 0 M-1.3 -0.26 C-0.93 -0.19, -0.57 -0.12, 0 0 M0 0 C0 0, 0 0, 0 0 M0 0 C0 0, 0 0, 0 0 M0 0 C0 0, 0 0, 0 0 M0 0 C0 0, 0 0, 0 0" stroke="#00000000" stroke-width="1" fill="none"></path></g></g><g stroke-linecap="round"><g transform="translate(102 564.6666669845581) rotate(0 -0.006666660308837891 -4)" fill-rule="evenodd"><path d="M0 0 L0 0 L1.56 -0.31 L2.82 -1.17 L3.68 -2.44 L3.99 -4 L3.68 -5.56 L2.82 -6.83 L1.56 -7.69 L0 -8 L-1.56 -7.69 L-2.83 -6.83 L-3.69 -5.56 L-4 -4 L-3.69 -2.44 L-2.83 -1.17 L-1.56 -0.31 L0 0 L0 0" stroke="none" stroke-width="0" fill="#000" fill-rule="evenodd"></path><path d="M0 0 C0 0, 0 0, 0 0 M0 0 C0 0, 0 0, 0 0 M0 0 C0.52 -0.1, 1.04 -0.21, 1.56 -0.31 M0 0 C0.4 -0.08, 0.81 -0.16, 1.56 -0.31 M1.56 -0.31 C1.94 -0.57, 2.32 -0.83, 2.82 -1.17 M1.56 -0.31 C2.01 -0.62, 2.46 -0.93, 2.82 -1.17 M2.82 -1.17 C3.04 -1.49, 3.25 -1.81, 3.68 -2.44 M2.82 -1.17 C3.08 -1.56, 3.34 -1.94, 3.68 -2.44 M3.68 -2.44 C3.77 -2.92, 3.87 -3.4, 3.99 -4 M3.68 -2.44 C3.79 -3.03, 3.91 -3.62, 3.99 -4 M3.99 -4 C3.89 -4.49, 3.79 -4.98, 3.68 -5.56 M3.99 -4 C3.9 -4.42, 3.82 -4.83, 3.68 -5.56 M3.68 -5.56 C3.35 -6.05, 3.02 -6.54, 2.82 -6.83 M3.68 -5.56 C3.41 -5.96, 3.14 -6.36, 2.82 -6.83 M2.82 -6.83 C2.45 -7.08, 2.07 -7.34, 1.56 -7.69 M2.82 -6.83 C2.52 -7.04, 2.22 -7.24, 1.56 -7.69 M1.56 -7.69 C1.23 -7.75, 0.9 -7.82, 0 -8 M1.56 -7.69 C0.95 -7.81, 0.34 -7.93, 0 -8 M0 -8 C-0.46 -7.91, -0.92 -7.81, -1.56 -7.69 M0 -8 C-0.41 -7.92, -0.82 -7.84, -1.56 -7.69 M-1.56 -7.69 C-1.85 -7.49, -2.15 -7.29, -2.83 -6.83 M-1.56 -7.69 C-1.99 -7.4, -2.42 -7.11, -2.83 -6.83 M-2.83 -6.83 C-3.04 -6.53, -3.24 -6.22, -3.69 -5.56 M-2.83 -6.83 C-3.02 -6.55, -3.21 -6.26, -3.69 -5.56 M-3.69 -5.56 C-3.81 -4.97, -3.92 -4.37, -4 -4 M-3.69 -5.56 C-3.77 -5.12, -3.86 -4.69, -4 -4 M-4 -4 C-3.88 -3.4, -3.76 -2.81, -3.69 -2.44 M-4 -4 C-3.89 -3.44, -3.77 -2.88, -3.69 -2.44 M-3.69 -2.44 C-3.38 -1.99, -3.08 -1.54, -2.83 -1.17 M-3.69 -2.44 C-3.48 -2.13, -3.27 -1.83, -2.83 -1.17 M-2.83 -1.17 C-2.57 -1, -2.31 -0.82, -1.56 -0.31 M-2.83 -1.17 C-2.37 -0.86, -1.92 -0.56, -1.56 -0.31 M-1.56 -0.31 C-1.03 -0.21, -0.5 -0.1, 0 0 M-1.56 -0.31 C-1.18 -0.24, -0.8 -0.16, 0 0 M0 0 C0 0, 0 0, 0 0 M0 0 C0 0, 0 0, 0 0 M0 0 C0 0, 0 0, 0 0 M0 0 C0 0, 0 0, 0 0" stroke="#00000000" stroke-width="1" fill="none"></path></g></g><g stroke-linecap="round"><g transform="translate(112 568.6666679382324) rotate(0 4.76837158203125e-7 3.3333330154418945)" fill-rule="evenodd"><path d="M0 0 L0 0 L-2.18 0.23 L-4.58 0.92 L-6.53 2.06 L-7.12 2.81 L-7.33 3.67 L-7.33 6.67 L7.33 6.67 L7.33 3.67 L7.33 3.67 L7.12 2.81 L6.53 2.06 L4.58 0.92 L2.18 0.23 L0 0 L0 0" stroke="none" stroke-width="0" fill="#000" fill-rule="evenodd"></path><path d="M0 0 C0 0, 0 0, 0 0 M0 0 C0 0, 0 0, 0 0 M0 0 C-0.62 0.07, -1.24 0.13, -2.18 0.23 M0 0 C-0.7 0.07, -1.41 0.15, -2.18 0.23 M-2.18 0.23 C-2.66 0.37, -3.15 0.51, -4.58 0.92 M-2.18 0.23 C-2.94 0.45, -3.7 0.67, -4.58 0.92 M-4.58 0.92 C-5.32 1.35, -6.06 1.79, -6.53 2.06 M-4.58 0.92 C-5.33 1.36, -6.08 1.8, -6.53 2.06 M-6.53 2.06 C-6.76 2.35, -6.98 2.64, -7.12 2.81 M-6.53 2.06 C-6.75 2.35, -6.98 2.63, -7.12 2.81 M-7.12 2.81 C-7.2 3.14, -7.29 3.48, -7.33 3.67 M-7.12 2.81 C-7.18 3.05, -7.24 3.29, -7.33 3.67 M-7.33 3.67 C-7.33 4.56, -7.33 5.45, -7.33 6.67 M-7.33 3.67 C-7.33 4.53, -7.33 5.38, -7.33 6.67 M-7.33 6.67 C-1.74 6.67, 3.86 6.67, 7.33 6.67 M-7.33 6.67 C-3.42 6.67, 0.49 6.67, 7.33 6.67 M7.33 6.67 C7.33 6.01, 7.33 5.36, 7.33 3.67 M7.33 6.67 C7.33 5.92, 7.33 5.18, 7.33 3.67 M7.33 3.67 C7.33 3.67, 7.33 3.67, 7.33 3.67 M7.33 3.67 C7.33 3.67, 7.33 3.67, 7.33 3.67 M7.33 3.67 C7.28 3.43, 7.22 3.2, 7.12 2.81 M7.33 3.67 C7.26 3.36, 7.18 3.06, 7.12 2.81 M7.12 2.81 C6.9 2.54, 6.69 2.27, 6.53 2.06 M7.12 2.81 C6.99 2.65, 6.87 2.49, 6.53 2.06 M6.53 2.06 C5.88 1.68, 5.23 1.3, 4.58 0.92 M6.53 2.06 C6 1.75, 5.47 1.44, 4.58 0.92 M4.58 0.92 C3.66 0.66, 2.74 0.39, 2.18 0.23 M4.58 0.92 C4.03 0.76, 3.48 0.6, 2.18 0.23 M2.18 0.23 C1.46 0.15, 0.75 0.08, 0 0 M2.18 0.23 C1.43 0.15, 0.68 0.07, 0 0 M0 0 C0 0, 0 0, 0 0 M0 0 C0 0, 0 0, 0 0 M0 0 C0 0, 0 0, 0 0 M0 0 C0 0, 0 0, 0 0" stroke="#00000000" stroke-width="1" fill="none"></path></g></g><g stroke-linecap="round"><g transform="translate(102 567.3333339691162) rotate(0 -3.086666703224182 4)" fill-rule="evenodd"><path d="M0 0 L0 0 L-1.29 0.07 L-2.77 0.29 L-5.83 1.17 L-7.2 1.82 L-8.31 2.63 L-9.06 3.57 L-9.33 4.67 L-9.33 8 L0 8 L0 5 L0 5 L0.11 4.01 L0.56 2.83 L1.52 1.57 L3.16 0.37 L1.48 0.1 L0 0 L0 0" stroke="none" stroke-width="0" fill="#000" fill-rule="evenodd"></path><path d="M0 0 C0 0, 0 0, 0 0 M0 0 C0 0, 0 0, 0 0 M0 0 C-0.47 0.03, -0.93 0.05, -1.29 0.07 M0 0 C-0.49 0.03, -0.98 0.06, -1.29 0.07 M-1.29 0.07 C-1.7 0.13, -2.12 0.2, -2.77 0.29 M-1.29 0.07 C-1.73 0.14, -2.17 0.2, -2.77 0.29 M-2.77 0.29 C-3.43 0.48, -4.1 0.67, -5.83 1.17 M-2.77 0.29 C-3.48 0.5, -4.2 0.7, -5.83 1.17 M-5.83 1.17 C-6.3 1.39, -6.77 1.62, -7.2 1.82 M-5.83 1.17 C-6.2 1.34, -6.56 1.52, -7.2 1.82 M-7.2 1.82 C-7.55 2.07, -7.89 2.32, -8.31 2.63 M-7.2 1.82 C-7.43 1.99, -7.66 2.15, -8.31 2.63 M-8.31 2.63 C-8.52 2.89, -8.73 3.16, -9.06 3.57 M-8.31 2.63 C-8.54 2.91, -8.76 3.2, -9.06 3.57 M-9.06 3.57 C-9.12 3.81, -9.18 4.05, -9.33 4.67 M-9.06 3.57 C-9.14 3.9, -9.22 4.23, -9.33 4.67 M-9.33 4.67 C-9.33 5.79, -9.33 6.92, -9.33 8 M-9.33 4.67 C-9.33 5.88, -9.33 7.1, -9.33 8 M-9.33 8 C-5.67 8, -2.01 8, 0 8 M-9.33 8 C-6.37 8, -3.4 8, 0 8 M0 8 C0 7.1, 0 6.2, 0 5 M0 8 C0 6.89, 0 5.78, 0 5 M0 5 C0 5, 0 5, 0 5 M0 5 C0 5, 0 5, 0 5 M0 5 C0.04 4.64, 0.08 4.27, 0.11 4.01 M0 5 C0.03 4.73, 0.06 4.45, 0.11 4.01 M0.11 4.01 C0.26 3.62, 0.4 3.24, 0.56 2.83 M0.11 4.01 C0.25 3.64, 0.39 3.26, 0.56 2.83 M0.56 2.83 C0.82 2.49, 1.08 2.14, 1.52 1.57 M0.56 2.83 C0.94 2.33, 1.31 1.84, 1.52 1.57 M1.52 1.57 C1.97 1.24, 2.42 0.91, 3.16 0.37 M1.52 1.57 C2.16 1.11, 2.79 0.64, 3.16 0.37 M3.16 0.37 C2.53 0.27, 1.91 0.17, 1.48 0.1 M3.16 0.37 C2.69 0.3, 2.22 0.22, 1.48 0.1 M1.48 0.1 C1.08 0.07, 0.69 0.05, 0 0 M1.48 0.1 C0.93 0.06, 0.38 0.03, 0 0 M0 0 C0 0, 0 0, 0 0 M0 0 C0 0, 0 0, 0 0 M0 0 C0 0, 0 0, 0 0 M0 0 C0 0, 0 0, 0 0" stroke="#00000000" stroke-width="1" fill="none"></path></g></g><g stroke-linecap="round"><g transform="translate(234.5 570) rotate(0 87.75 0)"><path d="M0 0 C29.25 0, 146.25 0, 175.5 0" stroke="#495057" stroke-width="2.5" fill="none" stroke-dasharray="8 10"></path></g><g transform="translate(234.5 570) rotate(0 87.75 0)"><path d="M175.5 0 L161.91 6.34 L161.91 -6.34 L175.5 0" stroke="none" stroke-width="0" fill="#495057" fill-rule="evenodd"></path><path d="M175.5 0 C170.77 2.21, 166.04 4.41, 161.91 6.34 M161.91 6.34 C161.91 2.62, 161.91 -1.09, 161.91 -6.34 M161.91 -6.34 C166.1 -4.39, 170.28 -2.43, 175.5 0 M175.5 0 C175.5 0, 175.5 0, 175.5 0" stroke="#495057" stroke-width="2.5" fill="none"></path></g></g></svg>